/* XPM */
static char *result[] = {
/* columns rows colors chars-per-pixel */
"64 64 3 1 ",
"  c #288B02",
". c #9FFB00",
"X c None",
/* pixels */
"XXXXXXXXXXXXXXXXXXXXXXXXXXXXXXXXXXXXXXXXXXXXXXXXXXXXXXXXXXXXXXXX",
"XXXXXXXXXXXXXXXXXXXXXXXXXXXXXXXXXXXXXXXXXXXXXXXXXXXXXXXXXXXXXXXX",
"XXXXXXXXXXXXXXXXXXXXXXXXXXXXXXXXXXXXXXXXXXXXXXXXXXXXXXXXXXXXXXXX",
"XXXXXXXXXXXXXXXXXXXXXXXXXXXXXXXXXXXXXXXXXXXXXXXXXXXXXXXXXXXXXXXX",
"XXXXXXXXXXXXXXXXXXXXXXXXXXXXXXXXXXXXXXXXXXXXXXXXXXXXXXXXXXXXXXXX",
"XXXXXXXXXXXXXXXXXXXXXXXXXXXXXXXXXXXXXXXXXXXXXXXXXXXXXXXXXXXXXXXX",
"XXXX      XXXXXXXXXXXXXXXXXXXXXXXXXXXXXXXXXXXXXXXXXXXX      XXXX",
"XXXX      XXXXXXXXXXXXXXXXXXXXXXXXXXXXXXXXXXXXXXXXXXXX      XXXX",
"XXXX  ..  XXXXXXXXXX    XXXXXXXXXXXXXXXX    XXXXXXXXXX  ..  XXXX",
"XXXX  ..  XXXXXXXXXX    XXXXXXXXXXXXXXXX    XXXXXXXXXX  ..  XXXX",
"XXXX  ..  XXXXXXXXXX  ..  XXXXXXXXXXXX  ..  XXXXXXXXXX  ..  XXXX",
"XXXX  ..  XXXXXXXXXX  ..  XXXXXXXXXXXX  ..  XXXXXXXXXX  ..  XXXX",
"XXXX  ..  XXXXXXXXXX      XXXXXXXXXXXX      XXXXXXXXXX  ..  XXXX",
"XXXX  ..  XXXXXXXXXX      XXXXXXXXXXXX      XXXXXXXXXX  ..  XXXX",
"XXXX  ..    XXXXXXXXXX      XXXXXXXX      XXXXXXXXXX    ..  XXXX",
"XXXX  ..    XXXXXXXXXX      XXXXXXXX      XXXXXXXXXX    ..  XXXX",
"XXXX    ..  XXXXXXXXXX  ..  XX    XX  ..  XXXXXXXXXX  ..    XXXX",
"XXXX    ..  XXXXXXXXXX  ..  XX    XX  ..  XXXXXXXXXX  ..    XXXX",
"XXXXXX        XXXXXXXX      XX    XX      XXXXXXXX        XXXXXX",
"XXXXXX        XXXXXXXX      XX    XX      XXXXXXXX        XXXXXX",
"XX      XX      XXXXXXXX    XX    XX    XXXXXXXX      XX      XX",
"XX      XX      XXXXXXXX    XX    XX    XXXXXXXX      XX      XX",
"XX  ..  XXXX    XXXXXX                    XXXXXX    XXXX  ..  XX",
"XX  ..  XXXX    XXXXXX                    XXXXXX    XXXX  ..  XX",
"XX  ..    XXXX      XX  ..    ....    ..  XX      XXXX    ..  XX",
"XX  ..    XXXX      XX  ..    ....    ..  XX      XXXX    ..  XX",
"XX  ....  XXXX        ....    ....    ....        XXXX  ....  XX",
"XX  ....  XXXX        ....    ....    ....        XXXX  ....  XX",
"XX  ....    XXXX  ..  ......  ....  ......  ..  XXXX    ....  XX",
"XX  ....    XXXX  ..  ......  ....  ......  ..  XXXX    ....  XX",
"XXXX  ....  XXXX  ..  ......  ....  ......  ..  XXXX  ....  XXXX",
"XXXX  ....  XXXX  ..  ......  ....  ......  ..  XXXX  ....  XXXX",
"XXXXXX  ....  XX  ..  ......  ....  ......  ..  XX  ....  XXXXXX",
"XXXXXX  ....  XX  ..  ......  ....  ......  ..  XX  ....  XXXXXX",
"XXXXXXXX  ..      ..  ......  ....  ......  ..      ..  XXXXXXXX",
"XXXXXXXX  ..      ..  ......  ....  ......  ..      ..  XXXXXXXX",
"XXXX          ....    ......  ....  ......    ....          XXXX",
"XXXX          ....    ......  ....  ......    ....          XXXX",
"XXXX  ......        ........  ....  ........        ......  XXXX",
"XXXX  ......        ........  ....  ........        ......  XXXX",
"XX    ......  ....  ......  ........  ......  ....  ......    XX",
"XX    ......  ....  ......  ........  ......  ....  ......    XX",
"XX  ........  ..    ....    ........    ....    ..  ........  XX",
"XX  ........  ..    ....    ........    ....    ..  ........  XX",
"XX    ....    ..  ....    ............    ....  ..    ....    XX",
"XX    ....    ..  ....    ............    ....  ..    ....    XX",
"XXXX    ..  ..  ......    ............    ......  ..  ..    XXXX",
"XXXX    ..  ..  ......    ............    ......  ..  ..    XXXX",
"XXXXXX      ....  ......  ............  ......  ....      XXXXXX",
"XXXXXX      ....  ......  ............  ......  ....      XXXXXX",
"XXXXXXXX    ....  ......    ........    ......  ....    XXXXXXXX",
"XXXXXXXX    ....  ......    ........    ......  ....    XXXXXXXX",
"XXXXXXXX    ....    ......  ........  ......    ....    XXXXXXXX",
"XXXXXXXX    ....    ......  ........  ......    ....    XXXXXXXX",
"XXXXXXXX  ..  ....    ....            ....    ....  ..  XXXXXXXX",
"XXXXXXXX  ..  ....    ....            ....    ....  ..  XXXXXXXX",
"XXXXXXXXXX      ....    ......    ......    ....      XXXXXXXXXX",
"XXXXXXXXXX      ....    ......    ......    ....      XXXXXXXXXX",
"XXXXXXXXXXXXXX    ....  ......    ......  ....    XXXXXXXXXXXXXX",
"XXXXXXXXXXXXXX    ....  ......    ......  ....    XXXXXXXXXXXXXX",
"XXXXXXXXXXXXXXXX    ..  ......    ......  ..    XXXXXXXXXXXXXXXX",
"XXXXXXXXXXXXXXXX    ..  ......    ......  ..    XXXXXXXXXXXXXXXX",
"XXXXXXXXXXXXXXXXXX                            XXXXXXXXXXXXXXXXXX",
"XXXXXXXXXXXXXXXXXX                            XXXXXXXXXXXXXXXXXX"
};
