/* XPM */
static char *result[] = {
/* columns rows colors chars-per-pixel */
"64 64 3 1 ",
"  c #288B02",
". c #9FFB00",
"X c None",
/* pixels */
"XXXXXXXXXXXXXXXXXXXXXXXXXXXXXXXXXXXXXXXXXXXXXXXXXXXXXXXXXXXXXXXX",
"XXXXXXXXXXXXXXXXXXXXXXXXXXXXXXXXXXXXXXXXXXXXXXXXXXXXXXXXXXXXXXXX",
"XXXXXXXX    XXXXXXXXXXXXXXXXXXXXXXXXXXXXXXXXXXXXXXXX    XXXXXXXX",
"XXXXXXXX    XXXXXXXXXXXXXXXXXXXXXXXXXXXXXXXXXXXXXXXX    XXXXXXXX",
"XXXXXXXX        XXXXXXXXXXXXXXXXXXXXXXXXXXXXXXXX        XXXXXXXX",
"XXXXXXXX        XXXXXXXXXXXXXXXXXXXXXXXXXXXXXXXX        XXXXXXXX",
"XXXXXXXX  ....  XXXXXXXX      XXXX      XXXXXXXX  ....  XXXXXXXX",
"XXXXXXXX  ....  XXXXXXXX      XXXX      XXXXXXXX  ....  XXXXXXXX",
"XXXXXXXX    ..    XXXXXX  ..  XXXX  ..  XXXXXX    ..    XXXXXXXX",
"XXXXXXXX    ..    XXXXXX  ..  XXXX  ..  XXXXXX    ..    XXXXXXXX",
"XXXXXXXXXX  ....  XXXX        XXXX        XXXX  ....  XXXXXXXXXX",
"XXXXXXXXXX  ....  XXXX        XXXX        XXXX  ....  XXXXXXXXXX",
"XXXXXXXXXX        XXXX  ..  XXXXXXXX  ..  XXXX        XXXXXXXXXX",
"XXXXXXXXXX        XXXX  ..  XXXXXXXX  ..  XXXX        XXXXXXXXXX",
"XXXXXXXXXXXXXX    XXXX      XX    XX      XXXX    XXXXXXXXXXXXXX",
"XXXXXXXXXXXXXX    XXXX      XX    XX      XXXX    XXXXXXXXXXXXXX",
"XXXXXXXXXXXXXX    XXXX    XXXX    XXXX    XXXX    XXXXXXXXXXXXXX",
"XXXXXXXXXXXXXX    XXXX    XXXX    XXXX    XXXX    XXXXXXXXXXXXXX",
"XXXXXXXXXXXXXXXX  XXXX    XXXX    XXXX    XXXX  XXXXXXXXXXXXXXXX",
"XXXXXXXXXXXXXXXX  XXXX    XXXX    XXXX    XXXX  XXXXXXXXXXXXXXXX",
"XX        XXXX    XXXX                    XXXX    XXXX        XX",
"XX        XXXX    XXXX                    XXXX    XXXX        XX",
"XX  ....    XX      XX  ..    ....    ..  XX      XX    ....  XX",
"XX  ....    XX      XX  ..    ....    ..  XX      XX    ....  XX",
"XX    ....  XX        ....    ....    ....        XX  ....    XX",
"XX    ....  XX        ....    ....    ....        XX  ....    XX",
"XXXX    ....  XX  ..  ......  ....  ......  ..  XX  ....    XXXX",
"XXXX    ....  XX  ..  ......  ....  ......  ..  XX  ....    XXXX",
"XXXXXX    ..  XX  ..  ......  ....  ......  ..  XX  ..    XXXXXX",
"XXXXXX    ..  XX  ..  ......  ....  ......  ..  XX  ..    XXXXXX",
"XXXXXXXX  ..      ..  ......  ....  ......  ..  XX  ..  XXXXXXXX",
"XXXXXXXX  ..      ..  ......  ....  ......  ..  XX  ..  XXXXXXXX",
"XXXXXXXX  ..      ..  ......  ....  ......  ..      ..  XXXXXXXX",
"XXXXXXXX  ..      ..  ......  ....  ......  ..      ..  XXXXXXXX",
"XXXX          ....    ......  ....  ......    ....          XXXX",
"XXXX          ....    ......  ....  ......    ....          XXXX",
"XXXX  ......        ........  ....  ........        ......  XXXX",
"XXXX  ......        ........  ....  ........        ......  XXXX",
"XX    ......  ....  ......  ........  ......  ....  ......    XX",
"XX    ......  ....  ......  ........  ......  ....  ......    XX",
"XX  ........  ..    ....    ........    ....    ..  ........  XX",
"XX  ........  ..    ....    ........    ....    ..  ........  XX",
"XX    ....    ..  ....    ............    ....  ..    ....    XX",
"XX    ....    ..  ....    ............    ....  ..    ....    XX",
"XXXX    ..  ..  ......    ............    ......  ..  ..    XXXX",
"XXXX    ..  ..  ......    ............    ......  ..  ..    XXXX",
"XXXXXX      ....  ......  ............  ......  ....      XXXXXX",
"XXXXXX      ....  ......  ............  ......  ....      XXXXXX",
"XXXXXXXX    ....  ......    ........    ......  ....    XXXXXXXX",
"XXXXXXXX    ....  ......    ........    ......  ....    XXXXXXXX",
"XXXXXXXX    ....    ......  ........  ......    ....    XXXXXXXX",
"XXXXXXXX    ....    ......  ........  ......    ....    XXXXXXXX",
"XXXXXXXX  ..  ....    ....            ....    ....  ..  XXXXXXXX",
"XXXXXXXX  ..  ....    ....            ....    ....  ..  XXXXXXXX",
"XXXXXXXXXX      ....    ......    ......    ....      XXXXXXXXXX",
"XXXXXXXXXX      ....    ......    ......    ....      XXXXXXXXXX",
"XXXXXXXXXXXXXX    ....  ......    ......  ....    XXXXXXXXXXXXXX",
"XXXXXXXXXXXXXX    ....  ......    ......  ....    XXXXXXXXXXXXXX",
"XXXXXXXXXXXXXXXX    ..  ......    ......  ..    XXXXXXXXXXXXXXXX",
"XXXXXXXXXXXXXXXX    ..  ......    ......  ..    XXXXXXXXXXXXXXXX",
"XXXXXXXXXXXXXXXXXX      ......    ......      XXXXXXXXXXXXXXXXXX",
"XXXXXXXXXXXXXXXXXX      ......    ......      XXXXXXXXXXXXXXXXXX",
"XXXXXXXXXXXXXXXXXXXX                        XXXXXXXXXXXXXXXXXXXX",
"XXXXXXXXXXXXXXXXXXXX                        XXXXXXXXXXXXXXXXXXXX"
};
