/* XPM */
static char *_2679e1ec72e47018192e1ae701d4ef5PqQkAHnBs1nEz3jA[] = {
/* columns rows colors chars-per-pixel */
"64 64 4 1 ",
"  c None",
". c #0024FF",
"X c #FF008D",
"o c #74EFFE",
/* pixels */
"                                                                ",
"                                                                ",
"                                                                ",
"                                                                ",
"                                                                ",
"                                                                ",
"                                                                ",
"                                                                ",
"                           ..........                           ",
"                           ..........                           ",
"                         ....XXXXXX....                         ",
"                         ....XXXXXX....                         ",
"                     ....XXXXXXXXXXXXXX....                     ",
"                     ....XXXXXXXXXXXXXX....                     ",
"                 ....XXXXXXXXXXXXXXXXXXXXXX....                 ",
"                 ....XXXXXXXXXXXXXXXXXXXXXX....                 ",
"                 ..XX..XXXXXXXXXXXXXXXXXXXXXX..                 ",
"                 ..XX..XXXXXXXXXXXXXXXXXXXXXX..                 ",
"               ..XXXXXX..XXXXXXXXXXXXXXXXXX..XX..               ",
"               ..XXXXXX..XXXXXXXXXXXXXXXXXX..XX..               ",
"             ....XXXXXX..XXXXXXXXXXXXXXXXXXXXXX....             ",
"             ....XXXXXX..XXXXXXXXXXXXXXXXXXXXXX....             ",
"             ..XXXXXXXXXX..XXXXXXXXXXXXXXXXXXXXXX..             ",
"             ..XXXXXXXXXX..XXXXXXXXXXXXXXXXXXXXXX..             ",
"           ....XXXXXXXXXXXXXXXXXXXXXXXX..XXXXXXXX....           ",
"           ....XXXXXXXXXXXXXXXXXXXXXXXX..XXXXXXXX....           ",
"           ..XXXXXXXXXXXXXXXXXXXXXXXX..XXXXXXXXXXXX..           ",
"           ..XXXXXXXXXXXXXXXXXXXXXXXX..XXXXXXXXXXXX..           ",
"           ..XXXXXXXXXXXXXXXXXXXXXXXX..XXXXXXXXXXXX..           ",
"           ..XXXXXXXXXXXXXXXXXXXXXXXX..XXXXXXXXXXXX..           ",
"           ..XXXXXXXXXXXXXXXXXXXXXXXXXXXXXXXXXXXXXX..           ",
"           ..XXXXXXXXXXXXXXXXXXXXXXXXXXXXXXXXXXXXXX..           ",
"           ..XXXXXXXXXXXXXXXX......XXXXXXXXXXXXXXXX..           ",
"           ..XXXXXXXXXXXXXXXX......XXXXXXXXXXXXXXXX..           ",
"           ......XXXXXXXXXX..oooooo..XXXXXXXXXX......           ",
"           ......XXXXXXXXXX..oooooo..XXXXXXXXXX......           ",
"             ........XXXX..oooo..oooo..XXXX........             ",
"             ........XXXX..oooo..oooo..XXXX........             ",
"                   ....XX..oo..oooooo..XX....                   ",
"                   ....XX..oo..oooooo..XX....                   ",
"                    .......oooooooooo.......                    ",
"                    .......oooooooooo.......                    ",
"               ......XXXXXX..oooooo..XXXXXX......               ",
"               ......XXXXXX..oooooo..XXXXXX......               ",
"           ....XXXXXXXX..XXXX......XXXXXXXXXXXXXX....           ",
"           ....XXXXXXXX..XXXX......XXXXXXXXXXXXXX....           ",
"           ..XXXXXXXX..XXXXXXXXXXXXXX..XXXXXXXXXXXX..           ",
"           ..XXXXXXXX..XXXXXXXXXXXXXX..XXXXXXXXXXXX..           ",
"           ....XX....XX..XXXXXXXXXXXXXX..XXXX..XX....           ",
"           ....XX....XX..XXXXXXXXXXXXXX..XXXX..XX....           ",
"             ....XXXXXXXXXXXXXXXXXXXXXXXX..XXXX....             ",
"             ....XXXXXXXXXXXXXXXXXXXXXXXX..XXXX....             ",
"               ......XXXXXXXXXXXXXXXXXXXXXX......               ",
"               ......XXXXXXXXXXXXXXXXXXXXXX......               ",
"                   ..........................                   ",
"                   ..........................                   ",
"                            ........                            ",
"                            ........                            ",
"                                                                ",
"                                                                ",
"                                                                ",
"                                                                ",
"                                                                ",
"                                                                "
};
