/* XPM */
static char *_75bf504219d4f179853a5954dd82dbdEFZpJENM9FrHslUY[] = {
/* columns rows colors chars-per-pixel */
"64 64 4 1 ",
"  c None",
". c #0024FF",
"X c #74EFFE",
"o c #ADBAC9",
/* pixels */
"                                                                ",
"                                                                ",
"                                                                ",
"                                                                ",
"                                                                ",
"                                                                ",
"                                                                ",
"                                                                ",
"                                                                ",
"                                                                ",
"                         ..............                         ",
"                         ..............                         ",
"                     ....XXXXXXXXXXXXXX....                     ",
"                     ....XXXXXXXXXXXXXX....                     ",
"                 ....XXXXXXXXXXXXXXXXXXXXXX....                 ",
"                 ....XXXXXXXXXXXXXXXXXXXXXX....                 ",
"                 ..XX..XXXXXXXXXXXXXXXXXXXXXX..                 ",
"                 ..XX..XXXXXXXXXXXXXXXXXXXXXX..                 ",
"               ..XXXXXX..XXXXXXXXXXXXXXXXXX..XX..               ",
"               ..XXXXXX..XXXXXXXXXXXXXXXXXX..XX..               ",
"             ....XXXXXX..XXXXXXXXXXXXXXXXXXXXXX....             ",
"             ....XXXXXX..XXXXXXXXXXXXXXXXXXXXXX....             ",
"             ..XXXXXXXXXX..XXXXXXXXXXXXXXXXXXXXXX..             ",
"             ..XXXXXXXXXX..XXXXXXXXXXXXXXXXXXXXXX..             ",
"           ....XXXXXXXXXXXXXXXXXXXXXXXX..XXXXXXXX....           ",
"           ....XXXXXXXXXXXXXXXXXXXXXXXX..XXXXXXXX....           ",
"           ..XXXXXXXXXXXXXXXXXXXXXXXX..XXXXXXXXXXXX..           ",
"           ..XXXXXXXXXXXXXXXXXXXXXXXX..XXXXXXXXXXXX..           ",
"           ..XXXXXXXXXXXXXXXXXXXXXXXX..XXXXXXXXXXXX..           ",
"           ..XXXXXXXXXXXXXXXXXXXXXXXX..XXXXXXXXXXXX..           ",
"           ..XXXXXXXXXXXXXXXXXXXXXXXXXXXXXXXXXXXXXX..           ",
"           ..XXXXXXXXXXXXXXXXXXXXXXXXXXXXXXXXXXXXXX..           ",
"           ..XXXXXXXXXXXXXXXX......XXXXXXXXXXXXXXXX..           ",
"           ..XXXXXXXXXXXXXXXX......XXXXXXXXXXXXXXXX..           ",
"           ......XXXXXXXXXX..oooooo..XXXXXXXXXX......           ",
"           ......XXXXXXXXXX..oooooo..XXXXXXXXXX......           ",
"             ........XXXX..oooo..oooo..XXXX........             ",
"             ........XXXX..oooo..oooo..XXXX........             ",
"                   ....XX..oo..oooooo..XX....                   ",
"                   ....XX..oo..oooooo..XX....                   ",
"                    .......oooooooooo.......                    ",
"                    .......oooooooooo.......                    ",
"               ......XXXXXX..oooooo..XXXXXX......               ",
"               ......XXXXXX..oooooo..XXXXXX......               ",
"           ....XXXXXXXX..XXXX......XXXXXXXXXXXXXX....           ",
"           ....XXXXXXXX..XXXX......XXXXXXXXXXXXXX....           ",
"           ..XXXXXXXX..XXXXXXXXXXXXXX..XXXXXXXXXXXX..           ",
"           ..XXXXXXXX..XXXXXXXXXXXXXX..XXXXXXXXXXXX..           ",
"           ....XX....XX..XXXXXXXXXXXXXX..XXXX..XX....           ",
"           ....XX....XX..XXXXXXXXXXXXXX..XXXX..XX....           ",
"             ....XXXXXXXXXXXXXXXXXXXXXXXX..XXXX....             ",
"             ....XXXXXXXXXXXXXXXXXXXXXXXX..XXXX....             ",
"               ......XXXXXXXXXXXXXXXXXXXXXX......               ",
"               ......XXXXXXXXXXXXXXXXXXXXXX......               ",
"                   ..........................                   ",
"                   ..........................                   ",
"                            ........                            ",
"                            ........                            ",
"                                                                ",
"                                                                ",
"                                                                ",
"                                                                ",
"                                                                ",
"                                                                "
};
