/* XPM */
static char *_7cae1854dd34531fb78d0d87e83e1bcKU4JT8sEBiD4HZAN[] = {
/* columns rows colors chars-per-pixel */
"64 64 3 1 ",
"  c None",
". c #0024FF",
"X c #74EFFE",
/* pixels */
"                                                                ",
"                                                                ",
"                                                                ",
"                                                                ",
"                                                                ",
"                                                                ",
"                           ..........                           ",
"                           ..........                           ",
"                         ....XXXXXX....                         ",
"                         ....XXXXXX....                         ",
"                     ....XXXXXXXXXXXXXX....                     ",
"                     ....XXXXXXXXXXXXXX....                     ",
"                 ....XXXX..XXXXXXXXXX..XXXX....                 ",
"                 ....XXXX..XXXXXXXXXX..XXXX....                 ",
"                 ..XXXXXX..XXXXXXXXXX..XXXXXX..                 ",
"                 ..XXXXXX..XXXXXXXXXX..XXXXXX..                 ",
"               ..XX..XXXXXX..XXXXXX..XXXXXX..XX..               ",
"               ..XX..XXXXXX..XXXXXX..XXXXXX..XX..               ",
"             ....XXXX..XXXX..XXXXXX..XXXX..XXXX....             ",
"             ....XXXX..XXXX..XXXXXX..XXXX..XXXX....             ",
"             ..XXXXXXXX..XX..XXXXXX..XX..XXXXXXXX..             ",
"             ..XXXXXXXX..XX..XXXXXX..XX..XXXXXXXX..             ",
"           ....XXXXXXXX..XXXX..XX..XXXX..XXXXXXXX....           ",
"           ....XXXXXXXX..XXXX..XX..XXXX..XXXXXXXX....           ",
"           ..XX..XXXXXX..XXXX..XX..XXXX..XXXXXX..XX..           ",
"           ..XX..XXXXXX..XXXX..XX..XXXX..XXXXXX..XX..           ",
"           ..XXXX..XXXXXX..XXXXXXXXXX..XXXXXX..XXXX..           ",
"           ..XXXX..XXXXXX..XXXXXXXXXX..XXXXXX..XXXX..           ",
"           ..XXXXXXXXXXXX..XXXXXXXXXX..XXXXXXXXXXXX..           ",
"           ..XXXXXXXXXXXX..XXXXXXXXXX..XXXXXXXXXXXX..           ",
"           ..XXXXXXXXXXXXXX..XXXXXX..XXXXXXXXXXXXXX..           ",
"           ..XXXXXXXXXXXXXX..XXXXXX..XXXXXXXXXXXXXX..           ",
"           ......XXXXXXXXXXXXXXXXXXXXXXXXXXXXXX......           ",
"           ......XXXXXXXXXXXXXXXXXXXXXXXXXXXXXX......           ",
"             ........XXXXXXXXXXXXXXXXXXXXXX........             ",
"             ........XXXXXXXXXXXXXXXXXXXXXX........             ",
"                   ....XXXXXXXXXXXXXXXXXX....                   ",
"                   ....XXXXXXXXXXXXXXXXXX....                   ",
"                    .....XXXXXXXXXXXXXX.....                    ",
"                    .....XXXXXXXXXXXXXX.....                    ",
"                 ....XXXX..XXXXXXXXXX..XXXX....                 ",
"                 ....XXXX..XXXXXXXXXX..XXXX....                 ",
"                 ..XXXXXXXX..XXXXXX..XXXXXXXX..                 ",
"                 ..XXXXXXXX..XXXXXX..XXXXXXXX..                 ",
"                 ....XXXXXX..........XXXXXX....                 ",
"                 ....XXXXXX..........XXXXXX....                 ",
"                 ....XXXXXX..      ..XXXXXX....                 ",
"                 ....XXXXXX..      ..XXXXXX....                 ",
"                   ..........      ..........                   ",
"                   ..........      ..........                   ",
"                                                                ",
"                                                                ",
"                                                                ",
"                                                                ",
"                                                                ",
"                                                                ",
"                                                                ",
"                                                                ",
"                                                                ",
"                                                                ",
"                                                                ",
"                                                                ",
"                                                                ",
"                                                                "
};
