/* XPM */
static char *dc4218a1afa74a2fe730caa6dfec5777p23LyWx9gp56N35n[] = {
/* columns rows colors chars-per-pixel */
"64 64 3 1 ",
"  c None",
". c #0024FF",
"X c #FF008D",
/* pixels */
"                                                                ",
"                                                                ",
"                                                                ",
"                                                                ",
"                                                                ",
"                                                                ",
"                                                                ",
"                                                                ",
"                           ..........                           ",
"                           ..........                           ",
"                         ....XXXXXX....                         ",
"                         ....XXXXXX....                         ",
"                     ....XXXXXXXXXXXXXX....                     ",
"                     ....XXXXXXXXXXXXXX....                     ",
"                 ....XXXX..XXXXXXXXXX..XXXX....                 ",
"                 ....XXXX..XXXXXXXXXX..XXXX....                 ",
"                 ..XXXXXX..XXXXXXXXXX..XXXXXX..                 ",
"                 ..XXXXXX..XXXXXXXXXX..XXXXXX..                 ",
"               ..XX..XXXXXX..XXXXXX..XXXXXX..XX..               ",
"               ..XX..XXXXXX..XXXXXX..XXXXXX..XX..               ",
"             ....XXXX..XXXX..XXXXXX..XXXX..XXXX....             ",
"             ....XXXX..XXXX..XXXXXX..XXXX..XXXX....             ",
"             ..XXXXXXXX..XX..XXXXXX..XX..XXXXXXXX..             ",
"             ..XXXXXXXX..XX..XXXXXX..XX..XXXXXXXX..             ",
"           ....XXXXXXXX..XXXX..XX..XXXX..XXXXXXXX....           ",
"           ....XXXXXXXX..XXXX..XX..XXXX..XXXXXXXX....           ",
"           ..XX..XXXXXX..XXXX..XX..XXXX..XXXXXX..XX..           ",
"           ..XX..XXXXXX..XXXX..XX..XXXX..XXXXXX..XX..           ",
"           ..XXXX..XXXXXX..XXXXXXXXXX..XXXXXX..XXXX..           ",
"           ..XXXX..XXXXXX..XXXXXXXXXX..XXXXXX..XXXX..           ",
"           ..XXXXXXXXXXXX..XXXXXXXXXX..XXXXXXXXXXXX..           ",
"           ..XXXXXXXXXXXX..XXXXXXXXXX..XXXXXXXXXXXX..           ",
"           ..XXXXXXXXXXXXXX..XXXXXX..XXXXXXXXXXXXXX..           ",
"           ..XXXXXXXXXXXXXX..XXXXXX..XXXXXXXXXXXXXX..           ",
"           ......XXXXXXXXXXXXXXXXXXXXXXXXXXXXXX......           ",
"           ......XXXXXXXXXXXXXXXXXXXXXXXXXXXXXX......           ",
"             ........XXXXXXXXXXXXXXXXXXXXXX........             ",
"             ........XXXXXXXXXXXXXXXXXXXXXX........             ",
"                   ....XXXXXXXXXXXXXXXXXX....                   ",
"                   ....XXXXXXXXXXXXXXXXXX....                   ",
"                    .....XXXXXXXXXXXXXX.....                    ",
"                    .....XXXXXXXXXXXXXX.....                    ",
"                 ....XXXX..XXXXXXXXXX..XXXX....                 ",
"                 ....XXXX..XXXXXXXXXX..XXXX....                 ",
"                 ..XXXXXXXX..XXXXXX..XXXXXXXX..                 ",
"                 ..XXXXXXXX..XXXXXX..XXXXXXXX..                 ",
"                 ....XXXXXX..........XXXXXX....                 ",
"                 ....XXXXXX..........XXXXXX....                 ",
"                 ....XXXXXX..      ..XXXXXX....                 ",
"                 ....XXXXXX..      ..XXXXXX....                 ",
"                   ..........      ..........                   ",
"                   ..........      ..........                   ",
"                                                                ",
"                                                                ",
"                                                                ",
"                                                                ",
"                                                                ",
"                                                                ",
"                                                                ",
"                                                                ",
"                                                                ",
"                                                                ",
"                                                                ",
"                                                                "
};
