/* XPM */
static char *result[] = {
/* columns rows colors chars-per-pixel */
"60 60 42 1 ",
"  c black",
". c #060000",
"X c #0A0000",
"o c #0C0100",
"O c #0E0100",
"+ c #130100",
"@ c #130200",
"# c #140000",
"$ c #150200",
"% c #1A0000",
"& c #1D0000",
"* c #1C0301",
"= c #2B0300",
"- c #350100",
"; c #380100",
": c #3E0200",
"> c #450200",
", c #4D0100",
"< c #4D0400",
"1 c #580100",
"2 c #540903",
"3 c #680000",
"4 c #860100",
"5 c #820701",
"6 c #8D0200",
"7 c #8D0300",
"8 c #8D0400",
"9 c #8D0500",
"0 c #8D0700",
"q c #8D0800",
"w c #8D0901",
"e c #8D0B01",
"r c #8D1603",
"t c #8D1A07",
"y c #8D2B0A",
"u c #8D2F0C",
"i c #892218",
"p c #8D3527",
"a c #8D4C38",
"s c #8D5848",
"d c #8D8D75",
"f c None",
/* pixels */
"ffffffffffffffffffffffffffffffffffffffffffffffffffffffffffff",
"ffffffffffffffffffffffffffffffffffffffffffffffffffffffffffff",
"ffffffffffffffffffffffffffffffffffffffffffffffffffffffffffff",
"ffffffffffffffffffffffffffffffffffffffffffffffffffffffffffff",
"ffffffffffffffffffffffffffffffff-ee22222#.ffffffffffffffffff",
"ffffffffffffffffffffffffffff38<fffffffffffffffffffffffffffff",
"ffffffffffffffffffffffffff4<ffffffffffffffffffffffffffffffff",
"fffffffffffffffffffffufd48ffffffffffffffffffffffffffffffffff",
"fffffffffffffffffffffe48ffffffffffffffffffffffffffffffffffff",
"fffffffffffffffffffuee-fffffffffffffffffffffffffffffffffffff",
"fffffffffffffffffffe81ffffffffffffffffffffffffffffffffffffff",
"ffffffffffffffffffqs8fffffffffffffffffffffffffffffffffffffff",
"ffffffffffffffffff46-fffffffffffffffffffffffffffffffffffffff",
"ffffffffffffffffft84rfffffffffffffffffffffffffffffffffffffff",
"ffp$ffff%u<fffffff8e8fffffffffffffffffffffffffffffffffffffff",
"fffffiiffff#2fffff*88fffffffffffffffffffffffffffffffffffffff",
"fffffffffffff#efffp2#8fffffp8fffffffffffffffffffffffffffffff",
"fffff%%trfffffuefff8u8<fffffueffffffffffffffffffffffffffffff",
"fffffffff,4uffff#8q<. 3 fffff8freeufuuffffffffffffffffffffff",
"fffffffffff#%8rr8eer4.8   fff<frffff4ff4ffffffffffffffffffff",
"fffffffffffffff<q$4<.e80re  d  f8u8fffefffffffffffffffffffff",
"ffffffffffq88e8$-   p--e%eqq  rfusefefffffffffffffffffffffff",
"fffffffft8###6-4-% .+#<#<<qqreqqr8efff8qffffffffffffffffffff",
"ffffffff88#2ffff%t $.$$@O-<u-rrtursqffff4qffffffffffffffffff",
"fffffff8u8e33#2fff$2$...rurttueuurqqffffffafffffffffffffffff",
"fffffftq8<<rd64#<ff2.O$$Oe.2tt2ree$ <fffff-fffffffffffffffff",
"fffffffreffffff3633f2*$r.$$$<*$<e<<qr2<8uftfffffffffffffffff",
"fffffff4fffffffff66&i$O.OO$$$$$<8.p<22rqq0efffffffffffffffff",
"fffffff4ffffqq88ffu8%2<.OOOOO$*.-<e<<  rsudeufffffffffffffff",
"fffffff4fff66ffe4qq288* <XO*OO$-.7;8<>8erdpee8ffffffffffffff",
"fffffff4fff8fff84598u8qo $$.OO$O -:8%#<8%3teed-fffffffffffff",
"fffffff4ffufffe4fffp686yq..O<$$-O#%=##-%u---dweqsfffffffffff",
"fffffff4fqffe4fffffffiqe86.   *e.<%*O#$##$-##ee<-rffffffffff",
"fffffff3qff4ffffffffffq2288seO $.f..t<$u#O%u-<--rq4fffffffff",
"fffffff3f34fffffffffff6fft*fu8r-.ffftf.%u$t#%#ueeruqffffffff",
"ffffff633ffffffffffff6-ffffffffffffffff%tO<$#t<<q4-q8fffffff",
"fffff6s3fffffffffffff8fffffffffffffffffff###t<%--#q6ueefffff",
"ffff6u42fffffffffffffqfffffffffffffffffff#ft%#t##<eeqqe8ffff",
"ffff6-ff8ffffffffffffffffffffffffffffffffffff22q6#2eqquu4fff",
"fff-ffffqfffffffffffeffffffffffffffffffffffffff846#4q84u38ff",
"ffrfffff3fffffffffff8fffffffffffffffffffffffff-84qe4664##3ff",
"ff<ffffff<fffffffffsfffffffffffffffffffffffffff4q8uq643<ffff",
"fffffffff3fffffffffefffffffffffffffffffffffffffue6uq63rfffff",
"fffffffff3ffffffffffffffffffffffffffffffffffffff<qu66effffff",
"ffffffffff3ffffffftfffffffffffffffffffffffffffff48u333ffffff",
"fffffffffff<ffffffffffffffffffffffffffffffffffff4uuu3effffff",
"fffffffffff#ffffffffffffffffffffffffffffffffffff4uuue6ffffff",
"ffffffffffff#fffffffffffffffffffffffffffffffffff448u44ffffff",
"fffffffffffff#fffffffffffffffffffffffffffffffffff44444ffffff",
"fffffffffffffff2fffffffffffffffffffffffffffffffff4444fffffff",
"ffffffffffffffff#2ffffffffffffffffffffffffffffffff44ffffffff",
"ffffffffffffffffff#2ffffffffffffffffffffffffffffffffffffffff",
"ffffffffffffffffffffffffffffffffffffffffffffffffffffffffffff",
"ffffffffffffffffffffffffffffffffffffffffffffffffffffffffffff",
"ffffffffffffffffffffffffffffffffffffffffffffffffffffffffffff",
"ffffffffffffffffffffffffffffffffffffffffffffffffffffffffffff",
"ffffffffffffffffffffffffffffffffffffffffffffffffffffffffffff",
"ffffffffffffffffffffffffffffffffffffffffffffffffffffffffffff",
"ffffffffffffffffffffffffffffffffffffffffffffffffffffffffffff",
"ffffffffffffffffffffffffffffffffffffffffffffffffffffffffffff"
};
