/* XPM */
static char *result[] = {
/* columns rows colors chars-per-pixel */
"64 64 4 1 ",
"  c #FF4118",
". c #C1396F",
"X c #FFE100",
"o c None",
/* pixels */
"oooooooooooooooooooooooooooooooooooooooooooooooooooooooooooooooo",
"oooooooooooooooooooooooooooooooooooooooooooooooooooooooooooooooo",
"oooooooooooooooooooooooooooooooooooooooooooooooooooooooooooooooo",
"oooooooooooooooooooooooooooooooooooooooooooooooooooooooooooooooo",
"oooooooooooooooooooooooooooooooooooooooooooooooooooooooooooooooo",
"oooooooooooooooooooooooooooooooooooooooooooooooooooooooooooooooo",
"oooooooooooooooooooooooooooooooooooooooooooooooooooooooooooooooo",
"oooooooooooooooooooooooooooooooooooooooooooooooooooooooooooooooo",
"oooooooooooooooooooooooooooooooooooooooooooooooooooooooooooooooo",
"oooooooooooooooooooooooooooooooooooooooooooooooooooooooooooooooo",
"oooooooooooooooooooooooooooooooooooooooooooooooooooooooooooooooo",
"oooooooooooooooooooooooooooooooooooooooooooooooooooooooooooooooo",
"oooooooooooooooooooooooooooooooooooooooooooooooooooooooooooooooo",
"oooooooooooooooooooooooooooooooooooooooooooooooooooooooooooooooo",
"oooooooooooooooooooooooooooooooooooooooooooooooooooooooooooooooo",
"oooooooooooooooooooooooooooooooooooooooooooooooooooooooooooooooo",
"oooooooooooooooooooooooooooooooooooooooooooooooooooooooooooooooo",
"oooooooooooooooooooooooooooooooooooooooooooooooooooooooooooooooo",
"oooooooooooooooooooooooo................oooooooooooooooooooooooo",
"oooooooooooooooooooooooo................oooooooooooooooooooooooo",
"oooooooooooooooooooooo....XXXXXXXXXXXX....oooooooooooooooooooooo",
"oooooooooooooooooooooo....XXXXXXXXXXXX....oooooooooooooooooooooo",
"oooooooooooooooooo......XXXXXXXXXXXXXXXX......oooooooooooooooooo",
"oooooooooooooooooo......XXXXXXXXXXXXXXXX......oooooooooooooooooo",
"oooooooooooooooo....XXXXXXXXXXXXXXXXXXXXXXXX....oooooooooooooooo",
"oooooooooooooooo....XXXXXXXXXXXXXXXXXXXXXXXX....oooooooooooooooo",
"oooooooooooooo....XXXXXXXXXXXXXXXXXXXXXXXXXXXX....oooooooooooooo",
"oooooooooooooo....XXXXXXXXXXXXXXXXXXXXXXXXXXXX....oooooooooooooo",
"oooooooooooo..XXXXXXXX....XXXXXXXXXXXX....XXXXXXXX..oooooooooooo",
"oooooooooooo..XXXXXXXX....XXXXXXXXXXXX....XXXXXXXX..oooooooooooo",
"oooooooooo....XXXXXXXX....XXXXXXXXXXXX....XXXXXXXX....oooooooooo",
"oooooooooo....XXXXXXXX....XXXXXXXXXXXX....XXXXXXXX....oooooooooo",
"oooooooo....XXXXXXXXXX....XXXXXXXXXXXX....XXXXXXXXXX....oooooooo",
"oooooooo....XXXXXXXXXX....XXXXXXXXXXXX....XXXXXXXXXX....oooooooo",
"oooooooo..XXXXXXXXXXXX....XXXXXXXXXXXX....XXXXXXXXXXXX..oooooooo",
"oooooooo..XXXXXXXXXXXX....XXXXXXXXXXXX....XXXXXXXXXXXX..oooooooo",
"oooooo....XXXXXXXXXXXX....XXXXXXXXXXXX....XXXXXXXXXXXX....oooooo",
"oooooo....XXXXXXXXXXXX....XXXXXXXXXXXX....XXXXXXXXXXXX....oooooo",
"oooo......XXXXXXXXXXXXXXXXXXXXXXXXXXXXXXXXXXXXXXXXXXXX......oooo",
"oooo......XXXXXXXXXXXXXXXXXXXXXXXXXXXXXXXXXXXXXXXXXXXX......oooo",
"oooo..  ....XXXXXXXXXXXXXXXXXXXXXXXXXXXXXXXXXXXXXXXX....  ..oooo",
"oooo..  ....XXXXXXXXXXXXXXXXXXXXXXXXXXXXXXXXXXXXXXXX....  ..oooo",
"oooo..  ....XXXXXXXXXXXXXXXXXXXXXXXXXXXXXXXXXXXXXXXX....  ..oooo",
"oooo..  ....XXXXXXXXXXXXXXXXXXXXXXXXXXXXXXXXXXXXXXXX....  ..oooo",
"oooo..    ............XXXXXXXXXXXXXXXXXXXX............    ..oooo",
"oooo..    ............XXXXXXXXXXXXXXXXXXXX............    ..oooo",
"oooo..  ................................................  ..oooo",
"oooo..  ................................................  ..oooo",
"oooo....oooooooooooo..XXXXXX..oooo..XXXXXX..oooooooooooo....oooo",
"oooo....oooooooooooo..XXXXXX..oooo..XXXXXX..oooooooooooo....oooo",
"oooooooooooooooooo..XXXXXXXXXX....XXXXXXXXXX..oooooooooooooooooo",
"oooooooooooooooooo..XXXXXXXXXX....XXXXXXXXXX..oooooooooooooooooo",
"oooooooooooooooooo..XXXX..XXXX....XXXX..XXXX..oooooooooooooooooo",
"oooooooooooooooooo..XXXX..XXXX....XXXX..XXXX..oooooooooooooooooo",
"oooooooooooooooooo..XXXX..XXXX....XXXX..XXXX..oooooooooooooooooo",
"oooooooooooooooooo..XXXX..XXXX....XXXX..XXXX..oooooooooooooooooo",
"oooooooooooooooooooo..........oooo..........oooooooooooooooooooo",
"oooooooooooooooooooo..........oooo..........oooooooooooooooooooo",
"oooooooooooooooooooooooooooooooooooooooooooooooooooooooooooooooo",
"oooooooooooooooooooooooooooooooooooooooooooooooooooooooooooooooo",
"oooooooooooooooooooooooooooooooooooooooooooooooooooooooooooooooo",
"oooooooooooooooooooooooooooooooooooooooooooooooooooooooooooooooo",
"oooooooooooooooooooooooooooooooooooooooooooooooooooooooooooooooo",
"oooooooooooooooooooooooooooooooooooooooooooooooooooooooooooooooo"
};
