/* XPM */
static char *_7a50f8d5c74445cac4d3061581e556cD7hErZUnb68ErFLZ[] = {
/* columns rows colors chars-per-pixel */
"64 64 3 1 ",
"  c None",
". c #FF0033",
"X c #A80759",
/* pixels */
"                                                                ",
"                                                                ",
"                                                                ",
"                                                                ",
"                                                                ",
"                                                                ",
"                     ..                  ..                     ",
"                     ..                  ..                     ",
"                   ..                      ..                   ",
"                   ..                      ..                   ",
"                     ..                  ..                     ",
"                     ..                  ..                     ",
"                       ..................                       ",
"                       ..................                       ",
"                 ......XXXXXXXXXXXXXXXXXX......                 ",
"                 ......XXXXXXXXXXXXXXXXXX......                 ",
"         ........XXXXXXXXXXXXXXXXXXXXXXXXXXXXXX........         ",
"         ........XXXXXXXXXXXXXXXXXXXXXXXXXXXXXX........         ",
"       ....XXXXXXXXXXXXXXXXXXXXXXXXXXXXXXXXXXXXXXXXXX....       ",
"       ....XXXXXXXXXX....XXXXXXXXXXXXXX....XXXXXXXXXX....       ",
"     ......XXXXXXXXXX....XXXXXXXXXXXXXX....XXXXXXXXXX......     ",
"     ......XXXXXXXXXXXX..XXXXXXXXXXXXXX..XXXXXXXXXXXX......     ",
"   ..........XXXXXXXXXX..XXXXXXXXXXXXXX..XXXXXXXXXX..........   ",
"   ..........XXXXXXXXXX..XXXXXXXXXXXXXX..XXXXXXXXXX..........   ",
"   ....  ....XXXXXXXXXX..XXXXXXXXXXXXXX..XXXXXXXXXX....  ....   ",
"   ....  ....XXXXXXXXXX..XXXXXXXXXXXXXX..XXXXXXXXXX....  ....   ",
"   ....  ....XXXXXXXXXXXXXXXXXXXXXXXXXXXXXXXXXXXXXX....  ....   ",
"   ....  ....XXXXXXXXXXXXXXXXXXXXXXXXXXXXXXXXXXXXXX....  ....   ",
"   ..  ..........XXXXXXXXXXXXXXXXXXXXXXXXXXXXXX..........  ..   ",
"   ..  ..........XXXXXXXXXXXXXXXXXXXXXXXXXXXXXX..........  ..   ",
"   ..  ....    ......XXXXXXXXXXXXXXXXXXXXXX......    ....  ..   ",
"   ..  ....    ......XXXXXXXXXXXXXXXXXXXXXX......    ....  ..   ",
"       ....        ..........................        ....       ",
"       ....        ..........................        ....       ",
"       ..        ........              ........        ..       ",
"       ..        ........              ........        ..       ",
"       ..        ........              ........        ..       ",
"       ..        ........              ........        ..       ",
"                 ........              ........                 ",
"                 ........              ........                 ",
"                 ..  ....              ....  ..                 ",
"                 ..  ....              ....  ..                 ",
"                 ..  ....              ....  ..                 ",
"                 ..  ....              ....  ..                 ",
"                 ..  ....              ....  ..                 ",
"                 ..  ....              ....  ..                 ",
"                                                                ",
"                                                                ",
"                                                                ",
"                                                                ",
"                                                                ",
"                                                                ",
"                                                                ",
"                                                                ",
"                                                                ",
"                                                                ",
"                                                                ",
"                                                                ",
"                                                                ",
"                                                                ",
"                                                                ",
"                                                                ",
"                                                                ",
"                                                                "
};
