/* XPM */
static char *ba160408ebcf406bd74591caacc735f4I8M1g6rbFqwyT46c[] = {
/* columns rows colors chars-per-pixel */
"64 64 3 1 ",
"  c None",
". c #FF0033",
"X c #A80759",
/* pixels */
"                                                                ",
"                                                                ",
"                                                                ",
"                                                                ",
"                                                                ",
"                                                                ",
"                                                                ",
"                                                                ",
"                                                                ",
"                                                                ",
"                                                                ",
"                                                                ",
"                                                                ",
"                                                                ",
"                                                                ",
"                                                                ",
"                     ..                  ..                     ",
"                     ..                  ..                     ",
"                       ..              ..                       ",
"                       ..              ..                       ",
"                     ..                  ..                     ",
"                     ..                  ..                     ",
"                       ..................                       ",
"                       ..................                       ",
"                 ......XXXXXXXXXXXXXXXXXX......                 ",
"                 ......XXXXXXXXXXXXXXXXXX......                 ",
"         ........XXXXXXXXXXXXXXXXXXXXXXXXXXXXXX........         ",
"         ........XXXXXXXXXXXXXXXXXXXXXXXXXXXXXX........         ",
"       ....XXXXXXXXXXXXXXXXXXXXXXXXXXXXXXXXXXXXXXXXXX....       ",
"       ....XXXXXXXX......XXXXXXXXXXXXXX......XXXXXXXX....       ",
" ..........XXXXXXXX......XXXXXXXXXXXXXX......XXXXXXXX.......... ",
" ..........XXXXXXXXXXXX..XXXXXXXXXXXXXX..XXXXXXXXXXXX.......... ",
" ............XXXXXXXXXX..XXXXXXXXXXXXXX..XXXXXXXXXX............ ",
" ............XXXXXXXXXXXXXXXXXXXXXXXXXXXXXXXXXXXXXX............ ",
" ..      ....XXXXXXXXXXXXXXXXXXXXXXXXXXXXXXXXXXXXXX....      .. ",
" ..      ....XXXXXXXXXXXXXXXXXXXXXXXXXXXXXXXXXXXXXX....      .. ",
" ..      ....XXXXXXXXXXXXXXXXXXXXXXXXXXXXXXXXXXXXXX....      .. ",
" ..      ....XXXXXXXXXXXXXXXXXXXXXXXXXXXXXXXXXXXXXX....      .. ",
"     ............XXXXXXXXXXXXXXXXXXXXXXXXXXXXXX............     ",
"     ............XXXXXXXXXXXXXXXXXXXXXXXXXXXXXX............     ",
"     ......    ......XXXXXXXXXXXXXXXXXXXXXX......    ......     ",
"     ......    ......XXXXXXXXXXXXXXXXXXXXXX......    ......     ",
"     ..            ..........................            ..     ",
"     ..            ..........................            ..     ",
"     ..          ........              ........          ..     ",
"     ..          ........              ........          ..     ",
"                 ........              ........                 ",
"                 ........              ........                 ",
"                 ........              ........                 ",
"                 ........              ........                 ",
"                 ........              ........                 ",
"                 ........              ........                 ",
"                 ........              ........                 ",
"                 ........              ........                 ",
"                 ........              ........                 ",
"                 ........              ........                 ",
"                                                                ",
"                                                                ",
"                                                                ",
"                                                                ",
"                                                                ",
"                                                                ",
"                                                                ",
"                                                                "
};
