/* XPM */
static char *result[] = {
/* columns rows colors chars-per-pixel */
"64 64 4 1 ",
"  c #FF4118",
". c #C1396F",
"X c #FFE100",
"o c None",
/* pixels */
"oooooooooooooooooooooooooooooooooooooooooooooooooooooooooooooooo",
"oooooooooooooooooooooooooooooooooooooooooooooooooooooooooooooooo",
"oooooooooooooooooooooooooooooooooooooooooooooooooooooooooooooooo",
"oooooooooooooooooooooooooooooooooooooooooooooooooooooooooooooooo",
"oooooooooooooooooooooooooooooooooooooooooooooooooooooooooooooooo",
"oooooooooooooooooooooooooooooooooooooooooooooooooooooooooooooooo",
"oooooooooooooooooooooooooooooooooooooooooooooooooooooooooooooooo",
"oooooooooooooooooooooooooooooooooooooooooooooooooooooooooooooooo",
"oooooooooooooooooooooooooooooooooooooooooooooooooooooooooooooooo",
"oooooooooooooooooooooooooooooooooooooooooooooooooooooooooooooooo",
"oooooooooooooooooooooooooooooooooooooooooooooooooooooooooooooooo",
"oooooooooooooooooooooooooooooooooooooooooooooooooooooooooooooooo",
"oooooooooooooooooooooooooooooooooooooooooooooooooooooooooooooooo",
"oooooooooooooooooooooooooooooooooooooooooooooooooooooooooooooooo",
"oooooooooooooooooooooooooooooooooooooooooooooooooooooooooooooooo",
"oooooooooooooooooooooooooooooooooooooooooooooooooooooooooooooooo",
"oooooooooooooooooooooooooooooooooooooooooooooooooooooooooooooooo",
"oooooooooooooooooooooooooooooooooooooooooooooooooooooooooooooooo",
"oooooooooooooooooooooooooooooooooooooooooooooooooooooooooooooooo",
"oooooooooooooooooooooooooooooooooooooooooooooooooooooooooooooooo",
"oooooooooooooooooooooooooooooooooooooooooooooooooooooooooooooooo",
"oooooooooooooooooooooooooooooooooooooooooooooooooooooooooooooooo",
"oooooooooooooooooooooooooooooooooooooooooooooooooooooooooooooooo",
"oooooooooooooooooooooooooooooooooooooooooooooooooooooooooooooooo",
"oooooooooooooooooooooooo................oooooooooooooooooooooooo",
"oooooooooooooooooooooooo................oooooooooooooooooooooooo",
"oooooooooooooooooooooo....XXXXXXXXXXXX....oooooooooooooooooooooo",
"oooooooooooooooooooooo....XXXXXXXXXXXX....oooooooooooooooooooooo",
"oooooooooooooooooo......XXXXXXXXXXXXXXXX......oooooooooooooooooo",
"oooooooooooooooooo......XXXXXXXXXXXXXXXX......oooooooooooooooooo",
"oooooooooooooooo....XXXXXXXXXXXXXXXXXXXXXXXX....oooooooooooooooo",
"oooooooooooooooo....XXXXXXXXXXXXXXXXXXXXXXXX....oooooooooooooooo",
"oooooooooooooo....XXXXXXXXXXXXXXXXXXXXXXXXXXXX....oooooooooooooo",
"oooooooooooooo....XXXXXXXXXXXXXXXXXXXXXXXXXXXX....oooooooooooooo",
"oooooooooooo..XXXX........XXXXXXXXXXXX........XXXX..oooooooooooo",
"oooooooooooo..XXXX........XXXXXXXXXXXX........XXXX..oooooooooooo",
"oooooooooo....XXXXXXXX....XXXXXXXXXXXX....XXXXXXXX....oooooooooo",
"oooooooooo....XXXXXXXX....XXXXXXXXXXXX....XXXXXXXX....oooooooooo",
"oooooooo....XXXXXXXXXX....XXXXXXXXXXXX....XXXXXXXXXX....oooooooo",
"oooooooo....XXXXXXXXXX....XXXXXXXXXXXX....XXXXXXXXXX....oooooooo",
"oooooooo..XXXXXXXXXXXX....XXXXXXXXXXXX....XXXXXXXXXXXX..oooooooo",
"oooooooo..XXXXXXXXXXXX....XXXXXXXXXXXX....XXXXXXXXXXXX..oooooooo",
"oooooooo..XXXXXXXXXXXX....XXXXXXXXXXXX....XXXXXXXXXXXX..oooooooo",
"oooooooo..XXXXXXXXXXXX....XXXXXXXXXXXX....XXXXXXXXXXXX..oooooooo",
"oooo......XXXXXXXXXXXXXXXXXXXXXXXXXXXXXXXXXXXXXXXXXXXX......oooo",
"oooo......XXXXXXXXXXXXXXXXXXXXXXXXXXXXXXXXXXXXXXXXXXXX......oooo",
"oo....  ....XXXXXXXXXXXXXXXXXXXXXXXXXXXXXXXXXXXXXXXX....  ....oo",
"oo....  ....XXXXXXXXXXXXXXXXXXXXXXXXXXXXXXXXXXXXXXXX....  ....oo",
"....  ......XXXXXXXXXXXXXXXXXXXXXXXXXXXXXXXXXXXXXXXX......  ....",
"....  ......XXXXXXXXXXXXXXXXXXXXXXXXXXXXXXXXXXXXXXXX......  ....",
"..    ..oo......XX....XXXXXXXXXXXXXXXXXXXX....XX......oo..    ..",
"..    ..oo......XX....XXXXXXXXXXXXXXXXXXXX....XX......oo..    ..",
"........oo....XXXXXX........................XXXXXX....oo........",
"........oo....XXXXXX........................XXXXXX....oo........",
"oooooooooo..XXXXXXXXXX..oooo........oooo..XXXXXXXXXX..oooooooooo",
"oooooooooo..XXXXXXXXXX..oooo........oooo..XXXXXXXXXX..oooooooooo",
"oooooooo....XXXXXXXXXX....oooooooooooo....XXXXXXXXXX....oooooooo",
"oooooooo....XXXXXXXXXX....oooooooooooo....XXXXXXXXXX....oooooooo",
"oooooooo....XX......XX....oooooooooooo....XX......XX....oooooooo",
"oooooooo....XX......XX....oooooooooooo....XX......XX....oooooooo",
"oooooooooo..XX..oo..XX..oooooooooooooooo..XX..oo..XX..oooooooooo",
"oooooooooo..XX..oo..XX..oooooooooooooooo..XX..oo..XX..oooooooooo",
"oooooooooooo....oo....oooooooooooooooooooo....oo....oooooooooooo",
"oooooooooooo....oo....oooooooooooooooooooo....oo....oooooooooooo"
};
