/* XPM */
static char *result[] = {
/* columns rows colors chars-per-pixel */
"60 60 185 2 ",
"   c #030000",
".  c #0B0000",
"X  c #140100",
"o  c #1C0200",
"O  c #230201",
"+  c #2B0301",
"@  c #260B00",
"#  c #2B0B00",
"$  c #330301",
"%  c #3C0501",
"&  c #330B00",
"*  c #3A0900",
"=  c #391300",
"-  c #420501",
";  c #4B0501",
":  c #450C01",
">  c #4C0C01",
",  c #540501",
"<  c #5A0601",
"1  c #550901",
"2  c #5C0B01",
"3  c #521000",
"4  c #630601",
"5  c #6B0601",
"6  c #620901",
"7  c #6C0A01",
"8  c #740601",
"9  c #780401",
"0  c #730901",
"q  c #7B0B01",
"w  c #6C1101",
"e  c #6A1B01",
"r  c #641201",
"t  c #731401",
"y  c #7A1401",
"u  c #731801",
"i  c #7C1D01",
"p  c #572301",
"a  c #672201",
"s  c #702101",
"d  c #7D2F01",
"f  c #603D01",
"g  c #7C3301",
"h  c #5D4601",
"j  c #830C01",
"k  c #8C0D01",
"l  c #930E01",
"z  c #9B0E01",
"x  c #831201",
"c  c #8C1401",
"v  c #821801",
"b  c #8B1901",
"n  c #941201",
"m  c #9D1301",
"M  c #951E01",
"N  c #9B1A01",
"B  c #A50E01",
"V  c #AA0D01",
"C  c #B70E01",
"Z  c #A41301",
"A  c #AC1301",
"S  c #A51A01",
"D  c #AC1C01",
"F  c #B31501",
"G  c #BB1501",
"H  c #B41901",
"J  c #BC1C01",
"K  c #832501",
"L  c #9C2001",
"P  c #9C2901",
"I  c #942601",
"U  c #883601",
"Y  c #A52201",
"T  c #AA2301",
"R  c #B42301",
"E  c #BA2501",
"W  c #B32B01",
"Q  c #BB2A01",
"!  c #AF3201",
"~  c #A33F01",
"^  c #AF3A01",
"/  c #B03201",
"(  c #B93101",
")  c #B53A01",
"_  c #BA3C01",
"`  c #C41701",
"'  c #C31C01",
"]  c #CC1D01",
"[  c #D31E01",
"{  c #DA1E01",
"}  c #C52201",
"|  c #CC2301",
" . c #C42C01",
".. c #CC2C01",
"X. c #D42401",
"o. c #DB2401",
"O. c #D52A01",
"+. c #DC2B01",
"@. c #C43401",
"#. c #CD3301",
"$. c #C63E01",
"%. c #CB3B01",
"&. c #D43201",
"*. c #DC3301",
"=. c #D23E01",
"-. c #DD3B01",
";. c #E32501",
":. c #E52B01",
">. c #EB2C01",
",. c #F22D01",
"<. c #E43301",
"1. c #EC3201",
"2. c #E43C01",
"3. c #EC3C01",
"4. c #F23301",
"5. c #F23C01",
"6. c #FB3A01",
"7. c #B04301",
"8. c #B94201",
"9. c #BD6701",
"0. c #B36A01",
"q. c #CE4301",
"w. c #C34A01",
"e. c #CD4D01",
"r. c #D34401",
"t. c #DD4501",
"y. c #D54B01",
"u. c #DA4C01",
"i. c #C05D01",
"p. c #D75301",
"a. c #DE5601",
"s. c #E44501",
"d. c #EC4201",
"f. c #E14E01",
"g. c #EC4B01",
"h. c #F44301",
"j. c #FB4401",
"k. c #F34C01",
"l. c #FA4C01",
"z. c #E45101",
"x. c #EA5601",
"c. c #E55A01",
"v. c #F25401",
"b. c #FA5401",
"n. c #F35A01",
"m. c #FB5C01",
"M. c #D46001",
"N. c #DA6501",
"B. c #D46A01",
"V. c #DA7D01",
"C. c #E86301",
"Z. c #EE6C01",
"A. c #E46301",
"S. c #F56401",
"D. c #FC6401",
"F. c #F46B01",
"G. c #FB6B01",
"H. c #ED7101",
"J. c #E57F01",
"K. c #EF7F02",
"L. c #F57601",
"P. c #FC7301",
"I. c #F57A01",
"U. c #FC7C01",
"Y. c #D88801",
"T. c #EE8601",
"R. c #F58501",
"E. c #FD8301",
"W. c #F48901",
"Q. c #FD8B01",
"!. c #EC9901",
"~. c #F59301",
"^. c #FC9301",
"/. c #F29D01",
"(. c #FD9B01",
"). c #EFA301",
"_. c #F5A301",
"`. c #FAA301",
"'. c #FDAB01",
"]. c #FCB301",
"[. c #FDBC01",
"{. c #F5BC01",
"}. c #FDC801",
"|. c #FCC201",
" X c None",
/* pixels */
" X X X X X X X X X X X X X X X X X X X X X X X X X X X X X X X X X X X X X X X X X X X X X X X X X X X X X X X X X X X X",
" X X X X X X X X X X X X X X X X X X X X X X X X X X X X X X X X X X X X X X X X X X X X X X X X X X X X X X X X X X X X",
" X X X X X X X X X X X X X X X X X X X X X X X X X X X X X X X X X X X X X X X X X X X X X X X X X X X X X X X X X X X X",
" X X X X X X X X X X X X X X X X X X X X X X X X X X X X X X X X X X X X X X X X X X X X X X X X X X X X X X X X X X X X",
" X X X X X X X X X X X X X X X X X X X X X X X X X X X X X X X X X X X X X X X X X X X X X X X X X X X X X X X X X X X X",
" X X X X X X X X X X X X X X X X X X X X X X X X X X X X X X X X X X X X X X X X X X X X X X X X X X X X X X X X X X X X",
" X X X X X X X X X X X X X X X X X X X X X X X X X X X Xo  X X X X Xo  X X X X X X X X X X X X X X X X X X X X X X X X X",
" X X X X X X X X X X X X X X X X X X X X X X X X X X. + .  X X X XX    X X X X X X X X X X X X X X X X X X X X X X X X X",
" X X X X X X X X X X X X X X X X X X X X X X X X.  X XX .  X X X X< o    X X X.  X X X X X X X X X X X X X X X X X X X X",
" X X X X X X X X X X X X X X X X X X X X X X X X. . . .    X X X X` & .  X X X.  X X X X X X X X X X X X X X X X X X X X",
" X X X X X X X X X X X X X X X X X X X X X X X. . . . o +  Xo  XX.j O    X X X.  X X X X X X X X X X X X X X X X X X X X",
" X X X X X X X X X X X X X X X X X X X X X X X. o .   n %  X X Xl 2 .   o  XO X  X X X X X X X X X X X X X X X X X X X X",
" X X X X X X X X X X X X X X X X X X X X X X X. O . X 7 + . .  X; 4 .     . + .  X X X X X X X X X X X X X X X X X X X X",
" X X X X X X X X X X X X X X X X X X X X X X X X1 . - 0 X + . .  XG O     O 5 X .  X X X X X X X X X X X X X X X X X X X",
" X X X X X X X X X X X X X X X X X X X X X X X9 4 F - . m - } +  X| o   . O S o  X X X X X X X X X X X X X X X X X X X X",
" X X X X X X X X X X X X X X X X X X X X X X X- ; q X . O.$ q 4.4.' O . - % , + .  X X X X X X X X X X X X X X X X X X X",
" X X X X X X X X X X X X X X X X X X X X X X X% ; j X O o.$ j G >.m X ] A + - X .  X X X X X X X X X X X X X X X X X X X",
" X X X X X X X X X X X X X X X X X X X X Xo j , < 0 X o O.- ' J T 5.6 S * . q l  X X X X X X X X X X X X X X X X X X X X",
" X X X X X X X X X X X X X X X X X X X X% - 7 z j $ .   O.l ' U.Q.j.k A &     A  XO .  X X X X X X X X X X X X X X X X X",
" X X X X X X X X X X X X X X X X X X X X. - 0 A < - O   } G J ( z.l.J o.&     S  X+ .  X X X X X X X X X X X X X X X X X",
" X X X X X X X X X X X X X X X X X X X+ + < < l < Z $ . k ] Z + m 3.` ,.#   . k  XO   .  X X X X X X X X X X X X X X X X",
" X X X X X X X X X X X X X X X X X0 5 ; k 2 + q ; q & O , ;.A 5 S h.l ] @ . . 1 $ O    X X X X X X X X X X X X X X X X X",
" X X X X X X X X X X X. .  X X X X7 0 q 5 o o z , + j m @.D.Z < x  .z F % O . H $ $ X  X X X X X X X X X X X X X X X X X",
" X X X X X X X X X X X. X  X X X X7 7 0 7 O + { % . l { E.a `  .< k :.o.+ O . 7 % . $ +  X X X X X X X X X X X X X X X X",
" X X X X X X X X X X X. .  X X X X0 7 0 0 + < V I W o.F F.  Z O., z j.:.X . O o     % + $  X X X X X X X X X X X X X X X",
" X X X X X X X X X X XX X .  X X X7 0 < X + 7 G ' 5.| +.L.8.8 0 b g.h.j.O y % W b . X $ O  X X X X X X X X X X X X X X X",
" X X X X X X X X X X X< O X  X X0 q 9 6 o + + 2 5 X.:.P.U.Q.-.$ Y G.4.j.+ T X.m.4.  . $ o  X X X X X X X X X X X X X X X",
" X X X X X X X X X X Xq 5 o  X X0  X$ $ O t R l :.2 Z n /.<.; A | Q.Q.j.1 1 :.6 > ; X $ o  X X X X X X X X X X X X X X X",
" X X X X X X X X X X X0 q % . , 0 + + 1 O y ' E j.d.c Z `.P.e.$ D D.D.<.j , o.% + < . $  X X X X X X X X X X X X X X X X",
" X X X X X X.  X X X X; q q X , 0 o.X.q q e g.B 3.+.j $ /.d.L.] ' P.G.3 $ Z :.q 4 + X $ O  X X X X X X X X X X X X X X X",
" X X X X X X+  X.  X X* F % + + 5 +.% 0 , i t., y.&.o.9 ).:.' ;.| P.g.O b ] :.j 7 O X 4 +  Xo  X X X X X X X X X X X X X",
" X X X X X XO . . .  X+ ,.A $ < 7 X.+ % F r.L.8 y.-.8 0 _.+.% b.D.D.[ A o.>.1.q 7 Z . $ $ + +  X X.  X X X X X X X X X X",
" X X X X X X. . . .   > ;.A q - 6 7 < O F Y P.B q.2.9 F.'.*.O ] 5.h.1.n F 4.:.j - m . 0 D   o  X X     X X X X X X X X X",
" X X X X X X  . . . X % ] n 7 S j 0 7 k { #.Q.S $.x.G x.U.L.F 1.1.l.:.1 S m.n :.` F + ; 2 o - X  X       X X X X X X X X",
" X X X X X X  +     X O D % %.> A | 4 m ;.*.^.@.u.&.A V L.Z.% h.X.D.t % 3.m.5.+.' :.q $ O H ' . + .      X X X X X X X X",
" X X X X X X  +     o + j A k.> *.E.N F :.<.E.P.P.*.' ..Q.T.; 4.5.(.h 2 m.m.m.H 5.X.J H % x o.- ; <   .  X X X X X X X X",
" X X X X X X  5     $ X 0 >.U.: E O.E.Z o.*.L.g.U.&.h.P.[._.m G.b.P.g L h.W.D.O.2.m 2 4.2 o A | j q    X X X X X X X X X",
" X X X X X X  $ . X O   y 4.U.y < W S.,.1.1.X.X.^.v &.D.'._.' U.G.c.` j.' a.D.b.z } n | 4 9 ..Q.S 7    X X X X X X X X X",
" X X X X X Xo . X O < + u 6.k.:.q ^ b.3.P.>.2.S.g.Q 3.G.]._.2.G.F.T.C 3.d.o.l.D.q b.4.*.J ' t #.y B .  X X X X X X X X X",
" X X X X X X7 .     i K e 5.{ j.0 $ (.k.'.h.^.'.| 3.P.b.'.'.l.L.b.a.F k.l.5.b.U.2 g.x j.>.o.+ 7 % #    X X X X X X X X X",
" X X X X X Xk .   X %.S R ] +.D.#.' $.D [.U.U.`.Q ] (.P.'._.X.G.m.W.O.g.X.D.*.L.% s.$ o.o.k o S @.     X X X X X X X X X",
" X X X X X X X.   = -.; ;.' d.+.b.l.+.B.'.R.v.(.x J Q.'.[.~.E G.s.[.v.3.v.Q g.U.7 s.% :.5.D $ F m.X o  X X X X X X X X X",
" X X X X X X Xo   @ 6 & b.:.h.o.1.b.E.[.Q.W.F.^.X.2.P.^.^.~.} S.g.].D.l.^.& @ I.c +.q 4.j.@.l { w    X X X X X X X X X X",
" X X X X X X X-   # g.t.m.h.R.E.:.G.G.S.^.^.U.^.>.b.U.U.U.L.G h.E.^.D.Q.) r.X t., +.1 >.<.J 8.g.X    X X X X X X X X X X",
" X X X X X X X#.    s G.l.E.[.P.D.(.`.U.].(.(.U.U.^.`.Q.U.I.G d.&.b.4.'.! *   -.$ % % l  .I.F.G.X w  X X X X X X X X X X",
" X X X X X X X X7.    y j.^.|.v.P.Q.E.m.(.(.S.P.b.P.'.Q.'.].~.3.J 1.h.P.b   0.Q.% E . 7 D.E.O.%    X X X X X X X X X X X",
" X X X X X X X X X    2 j.^.[.E.U.> `.b.E.E.E.k.5.3.F.E.E.Q.].3.] ;.2 . O . N...7 1   & j.G.u   7. X X X X X X X X X X X",
" X X X X X X X X X X  p P.G.Q.S.b.% U.n.^.) u '.E.>.F.E.U.U.b.k.P.9.X . . . Y.E.% P.H . J G.e    X X X X X X X X X X X X",
" X X X X X X X X X X XX H.'.v.G.3.% Q.].[.9.; c.E.P.U.U.} '.(.'.(.N.O .   w.].].: E.a.$ S h.:  X X X X X X X X X X X X X",
" X X X X X X X X X X X  f '.> p.D.% ).W.E {.A.o.(.}.d.F.m.P.f.!.Q.%.X .   _ '.].].P.n.l.m.< .  X X X X X X X X X X X X X",
" X X X X X X X X X X X X  8.r _ E.+ % _., 2 G.U.W.[.*.S.G.H.  O R.%.$   X l G.].U.D.].P.*.X. X X X X X X X X X X X X X X",
" X X X X X X X X X X X X  g P O F.e : T.X v <.-.-.~.! S.`.c.  o 8 | i   r l.G.'.F.Q.(.3.+. X X X X X X X X X X X X X X X",
" X X X X X X X X X X X X X  U 1 _ V.- E o 2 T k `.'.M.#.j.q . ; l J $   X q.G.'.g.P.n.A  X X X X X X X X X X X X X X X X",
" X X X X X X X X X X X X X X X. O o + o > 2 $ $ g E . X k o X j ; 2 0   S Q.[.[.`.l.O. X X X X X X X X X X X X X X X X X",
" X X X X X X X X X X X X X X X XO $ + + 2 Y O + O X . o   . X q 0 0 k o 2 P.[.^.l.k.V  X X X X X X X X X X X X X X X X X",
" X X X X X X X X X X X X X X X X X+ + $ O O + + $ X .   . . X k 9 q , * r.b.I.b.b.k. X X X X X X X X X X X X X X X X X X",
" X X X X X X X X X X X X X X X X X X X X X+ $ + $ X . . . . . $ - 6   I D.b.l. X X X X X X X X X X X X X X X X X X X X X",
" X X X X X X X X X X X X X X X X X X X X X X X X X X X X X X X X X X X X X X X X X X X X X X X X X X X X X X X X X X X X",
" X X X X X X X X X X X X X X X X X X X X X X X X X X X X X X X X X X X X X X X X X X X X X X X X X X X X X X X X X X X X",
" X X X X X X X X X X X X X X X X X X X X X X X X X X X X X X X X X X X X X X X X X X X X X X X X X X X X X X X X X X X X"
};
