/* XPM */
static char *_b23ad8aeda340939f5bb2b2be751332WRVHLDLWIv9Nyfpk[] = {
/* columns rows colors chars-per-pixel */
"64 64 3 1 ",
"  c None",
". c red",
"X c #060099",
/* pixels */
"                                                                ",
"                                                                ",
"    XXXXXX  XX                                                  ",
"    XXXXXX  XX                                                  ",
"  XXXXXXXXXXXX                          XXXXXXXXXX      XX      ",
"  XXXXXXXXXXXX                          XXXXXXXXXX      XX      ",
"    XXXXXX  XX                        XXXXXXXXXXXXXX  XXXX      ",
"    XXXXXX  XX                        XXXXXXXXXXXXXX  XXXX      ",
"                XXXXXXXX      XX    XXXX..XXXXXXXXXXXXXXXX      ",
"                XXXXXXXX      XX    XXXX..XXXXXXXXXXXXXXXX      ",
"              XXXXXXXXXXXX  XXXX      XXXXXXXXXXXXXX  XXXX      ",
"              XXXXXXXXXXXX  XXXX      XXXXXXXXXXXXXX  XXXX      ",
"            XXXX..XXXXXXXXXXXXXX        XXXXXXXXXX      XX      ",
"            XXXX..XXXXXXXXXXXXXX        XXXXXXXXXX      XX      ",
"              XXXXXXXXXXXX  XXXX                                ",
"              XXXXXXXXXXXX  XXXX                                ",
"                XXXXXXXX      XX                                ",
"                XXXXXXXX      XX                                ",
"                                                                ",
"                                                                ",
"                        XXXXXXXX              XXXXXXXX          ",
"                        XXXXXXXX              XXXXXXXX          ",
"                      XXXX..XXXXXX  XX      XXXXXXXXXXXX  XX    ",
"                      XXXX..XXXXXX  XX      XXXXXXXXXXXX  XX    ",
"                    XXXXXXXXXXXXXXXXXX    XXXXXXXXXXXXXXXXXX    ",
"                    XXXXXXXXXXXXXXXXXX    XXXXXXXXXXXXXXXXXX    ",
"                      XXXXXXXXXXXX  XX      XXXXXXXXXXXX  XX    ",
"                      XXXXXXXXXXXX  XX      XXXXXXXXXXXX  XX    ",
"                        XXXXXXXX              XXXXXXXX          ",
"                        XXXXXXXX              XXXXXXXX          ",
"                                                                ",
"                                                                ",
"    XXXXXXXXXX      XX                    XXXXXX  XX            ",
"    XXXXXXXXXX      XX                    XXXXXX  XX            ",
"  XXXXXXXXXXXXXX  XXXX                  XXXXXXXXXXXX            ",
"  XXXXXXXXXXXXXX  XXXX                  XXXXXXXXXXXX            ",
"  XX....XXXXXXXXXXXXXX                    XXXXXX  XX            ",
"  XX....XXXXXXXXXXXXXX                    XXXXXX  XX            ",
"  XX..XXXXXXXXXXXXXXXX        XXXXXX  XX                        ",
"  XX..XXXXXXXXXXXXXXXX        XXXXXX  XX                        ",
"  XXXXXXXXXXXXXX  XXXX      XXXXXXXXXXXX                        ",
"  XXXXXXXXXXXXXX  XXXX      XXXXXXXXXXXX                        ",
"    XXXXXXXXXX      XX        XXXXXX  XX                        ",
"    XXXXXXXXXX      XX        XXXXXX  XX                        ",
"                                                                ",
"                                                                ",
"                XXXXXXXX      XX                                ",
"                XXXXXXXX      XX                                ",
"              XXXXXXXXXXXX  XXXX                                ",
"              XXXXXXXXXXXX  XXXX                                ",
"            XXXXXXXXXXXXXXXXXXXX        XXXXXXXXXX      XX      ",
"            XXXXXXXXXXXXXXXXXXXX        XXXXXXXXXX      XX      ",
"              XXXXXXXXXXXX  XXXX      XXXXXXXXXXXXXX  XXXX      ",
"              XXXXXXXXXXXX  XXXX      XXXXXXXXXXXXXX  XXXX      ",
"                XXXXXXXX      XX    XXXXXXXXXXXXXXXXXXXXXX      ",
"                XXXXXXXX      XX    XXXXXXXXXXXXXXXXXXXXXX      ",
"                                      XXXXXXXXXXXXXX  XXXX      ",
"                                      XXXXXXXXXXXXXX  XXXX      ",
"                                        XXXXXXXXXX      XX      ",
"                                        XXXXXXXXXX      XX      ",
"                                                                ",
"                                                                ",
"                                                                ",
"                                                                "
};
