/* XPM */
static char *_d2e0d1d75c049eda72e8eb7fd447db4MhwzKB46FdzAy9Ue[] = {
/* columns rows colors chars-per-pixel */
"60 60 93 2 ",
"   c #804141",
".  c #814242",
"X  c #824343",
"o  c #834343",
"O  c #844444",
"+  c #844544",
"@  c #864746",
"#  c #864846",
"$  c #874948",
"%  c #884A48",
"&  c #894B49",
"*  c #8A4D4A",
"=  c #884E4E",
"-  c #894E4E",
";  c #8C4F4C",
":  c #8F534F",
">  c #8A5050",
",  c #8B5050",
"<  c #8C5150",
"1  c #8D5251",
"2  c #8E5352",
"3  c #8F5453",
"4  c #905450",
"5  c #915550",
"6  c #915551",
"7  c #905654",
"8  c #905755",
"9  c #945954",
"0  c #98605C",
"q  c #98605D",
"w  c #A46C63",
"e  c #A56D64",
"r  c #A66F65",
"t  c #A77065",
"y  c #A77066",
"u  c #A77166",
"i  c #A87166",
"p  c #AB756A",
"a  c #AC766A",
"s  c #AC796F",
"d  c #AD7A71",
"f  c #AE7A70",
"g  c #BF8F7E",
"h  c #C08E7E",
"j  c #C39281",
"k  c #C39381",
"l  c #C49482",
"z  c #C49582",
"x  c #C79985",
"c  c #C89885",
"v  c #C79989",
"b  c #C79B8A",
"n  c #C89C8A",
"m  c #C89C8B",
"M  c #DBB199",
"N  c #DCB299",
"B  c #DFB69D",
"V  c #E0B69D",
"C  c #E0B79D",
"Z  c #E0B79E",
"A  c #E1B89E",
"S  c #E2BA9F",
"D  c #E3BBA0",
"F  c #E1BBA4",
"G  c #E2BCA4",
"H  c #E3BDA4",
"J  c #F3CEAF",
"K  c #F6D2B2",
"L  c #F6D2B3",
"P  c #F7D3B3",
"I  c #F7D5B7",
"U  c #F8D4B4",
"Y  c #FBD8B7",
"T  c #F8D6B8",
"R  c #FDDAB9",
"E  c #FEDCBA",
"W  c #FFDDBB",
"Q  c #FFDEBB",
"!  c #FDDFBD",
"~  c #FFDEBC",
"^  c #FFE0BD",
"/  c #FFE2BF",
"(  c #FFE3BF",
")  c #FFDFC0",
"_  c #FFE2C1",
"`  c #FFE2C2",
"'  c #FFE4C0",
"]  c #FEE5C1",
"[  c #FFE4C3",
"{  c #FFE6C2",
"}  c bisque",
"|  c #FFE6C4",
" . c #FFE8C6",
/* pixels */
"8 8 8 8 8 3 8 3 > = 1 0 f b G ) ) _ ) ) ^ _ | | | T G m f 8 8 f b G P |  .| _ _ ) _ ) ) ~ G m f q 1 = = 8 8 8 8 4 8 8 8 ",
"% % % # o   + 4 t l A P _ ] ] ~ Q ~ _ ] _ U A z i 1 X   X $ $ X o + 3 t z A K _ ] _ ~ Q Q ] ] _ L C z t : + o o # % & $ ",
"o o X 4 t l A L _ ] ] ^ Q ^ ] ] ^ K A l t 4 X o o @ % $ % # $ $ # $ # X   + 4 t l A L _ ] ] ^ Q ^ ] ] _ K C k r 3 O o X ",
"t k B K ^ ] ] ^ ^ ^ ^ ] ^ P A l t 5 X o X # # $ % @ o o + 4 4 + o o # & $ % # o o + 4 t l A P _ ] ] ^ ~ ^ ] ] ^ K B z t ",
"^ ] ] ^ ^ ^ ( ] _ K A k i 4 X o X $ # $ % # o   + 4 t l A L L A z t : X o X + % # % # o   X 4 t l A K _ ] ] ~ ~ ^ ] ] ^ ",
"^ ^ ] ] _ P A l i 4 + o X # # # $ # o o + 4 t z A K _ ] ] ~ ~ ] | ^ K A k i 4 + o o # & % % # X o + 4 i l A P _ ] ] ^ ~ ",
"_ P A z i 4 + o X $ % # % # o o + 3 r z A K _ ] ( ^ ^ ^ ] ] ] ] ^ Q ^ ] ] ^ K A k t 3 X o o + % # % # X o + 4 i z B L _ ",
"t 5 X o X # $ # % + o o + 4 r l A K ^ ] ( ^ Q ^ ] ] ^ P A l l A P _ ] ] ^ ~ ^ ] ] ^ K B k r 4 + o X + % # % # X o + 4 t ",
"X # % % % + + o X : r k C K _ ] ( ^ ^ ^ ] | _ U A l i 4 + o   X 4 i l A P _ ] ] ^ ^ ^ _ ] ^ K A k t 3 O   o + % % $ + X ",
"# + o o O 5 r k C K _ ] ] ^ Q ^ ] | ^ U A l t 4 X o X + % % % % + o o X 4 t l A P ^ ] ] ^ Q ^ _ ] ^ K C z t 4 + o o # # ",
": 5 r k C K ( | ] ^ Q ^ ] ] ] P A l t 4 O o o + % # % # o   o o # % % % # X o + 4 i k A P ] | ] ^ ^ ^ ( ] _ K C k r 4 4 ",
"K K _ ] ] ^ ~ ^ ( | ^ P A l t 4 X o X # % # % # X o O 5 r k k r : X o o # % # % # X o + 4 i l C P ^ ] ] ^ ~ ~ ] ] _ K K ",
"^ ^ ^ ^ ] ] ^ P A l t 4 X X X # % # % # o o o 1 r k B L ^ ] ] _ K C k t 1 o   o # % % % + X o + 4 i k C K _ ] ] ^ ~ ^ ^ ",
"] ] ^ P A l i 4 X o X # & & $ & X o X 5 r k B L _ ] ] ^ Q Q Q Q ^ _ ] _ K B k r 4 + o o % % % % # X o + 4 i z D P ] | | ",
"H n f q 1 = > 3 8 3 3 3 3 8 8 3 f b G P | | | _ ) ) ) ) ) _ ) ) ) ) ) ) _ | | } I F b s 4 8 8 8 8 8 4 8 3 : = > 9 d m H ",
"8 8 8 8 8 8 8 3 : = 3 0 d b G ^ ) ) ) _ ) _ | | | T G m f 8 3 f m F T |  .| } ) ) ) ) ~ _ G b d q 1 > > 3 8 3 3 9 9 8 8 ",
"% $ % + o   + 4 i k A K ^ ] ] ~ E ~ ] ] _ K A k t : + o o $ $ X o X 5 t z B U _ ] ] ^ Q ~ ] ] ^ P A z t 5 O o X # # % % ",
"X o + 4 t k A K ^ ] ] ^ ^ ^ ] ] _ K A l i 4 O o o # $ # # # # % # # # o o X 4 t l A P ^ ] ( ^ ~ ^ ] ] ^ P A h t 4 X o X ",
"i k C L ^ ] ( ^ ~ ^ ] ] _ P B l i 4 + o X # # # $ # o o O 3 4 + o o # % # # # X o + 4 i z B P _ ] ] ^ Q ^ ( ] _ L A z t ",
"_ ] ] ^ ^ ^ ] ] _ P A l t 5 X o X + % # % # X o + 4 t k A K K A k r 5 O o o # $ # % # X o + 4 t l A P ( | ] ^ ^ ^ ] ] ^ ",
"Q ^ ] ] ( P A z t 4 + o o + % $ % $ o o o : t z A K ( | ( ^ ^ ] ] _ K A z t 5 O o o # % % % # X o + 4 i l A K ^ ] ] ^ Q ",
"^ P A l i 4 X o X # % # % # X o + 4 r z B K _ ] ( ^ Q ^ ( ] | ( ^ ~ ^ ] ] ^ K A k r 4 X o X # $ # # # X   O 5 t l A P ^ ",
"& & & $ # $ # # X X + 3 r g N Y E E ~ Q Q ^ ] ] ^ P A c p : : p l D U _ ] ] ^ Q Q Q Q Y Y N g r 3 X o o # % % % $ % & & ",
"& % % # o o + 5 i h A K ^ ] ] Q Q ~ _ ] ^ P A l t 4 X   o # # o o + 4 t l A P _ ] _ ~ Q Q _ ] ^ P B k r 3 X o X # % & & ",
"X o + 4 t z B K ^ | ] ^ ^ ^ ( ] ( U B k t 5 X   X # % % % # # # $ $ # X o X 4 t l A K _ ] ] ^ Q ^ ( ] ^ P A z w 4 + o o ",
"t k A L ^ | ] ^ ~ ^ ( | ^ P B z t 4 X o X # & # & # X   O 5 5 O o X + % % % # X o + 4 i l A K _ | ( ^ ^ ^ ] ] ( K A k r ",
"^ ] ] ^ ~ ^ ( ] _ P B k t 4 + o X # # $ % # X o X 3 t z B K K A z t 5 O o o + % # % # X o X 4 i l A P ( ] ] ^ ^ ^ ] ] _ ",
"~ ^ ] ] _ P A l i 4 +   X # & % % # o o + 4 t z A P ^ | ] ^ ^ ( ] ^ K A k t 4 + o X + % % % $ X   O 5 t l A P ^ ] ] ^ ~ ",
"( U B z t 4 + o X # % $ % # X   + 4 r k A P ^ ] ] ^ Q ^ ] ] ] ] ^ ~ ^ ] ] ^ K A k t 3 O   o + % % % + o o + 4 i k C K ^ ",
"t 4 X o X # % # % # o o O : t z C L _ ] ( ^ ^ ^ ( | ^ P A l l A P _ ] ] ^ ~ ^ ] ] ^ K A k t 4 + o o # % # % # X o O 5 t ",
"X # # % # # X o + 4 r z A K ^ | ] ^ ~ ^ ] | ( P A l t 5 X o o X 4 t l A P ] ] ] ^ ^ ^ ( ] _ L C k r : + o o # % % % # X ",
"+ # o o + : r k B K ^ ] ( ^ ^ ^ ( | ^ P A l t 4 X o X # % % % % + o o + 4 i l A P ^ ] ] ^ ~ ^ ] ] ^ K B k r 4 + o o # + ",
"4 4 t l C K ^ ] ] ^ ~ ^ ] ] _ P A l t 4 + o X # % # % + o o   o + % % % # X o + 4 t k C L _ ] ] ^ ~ ^ ] ] ^ K C k t 4 4 ",
"L K _ ] ] ^ ~ ^ ] ] ] P C l i 4 X   X # % $ % + O o + 4 r l k r 3 O o X + % $ % # X o X 4 i l A P _ ] ] ^ ^ ^ ] ] ^ K K ",
"^ ^ ~ ^ ] ] _ P A z t 4 X o X # $ $ % # X o X 3 r l C K ^ ] ] ^ K C h t : +   o # % % $ # X o X 4 t l A P ] ] ] ~ ~ ^ ^ ",
"] ] ( P A l i 4 + o o + % % % % o o + 4 t k B K ^ ] ] ^ ~ ~ ~ Q ^ ] ] ( K B k r 4 + o o % % % % + o o + 4 i l A P ] ] ] ",
"D c a 9 # o X # % % # # % % % $ w g N J ^ ] ] ^ ~ Q Q Q Q Q Q Q Q Q ~ Q ~ ] ] ^ J N h w # % % % $ $ $ % # X o # 9 a x G ",
"i 4 X o X + $ # % # X o + 4 r z A P ^ ] ] ~ ~ ^ ] ] _ U A k l A P ^ ] ] ~ ~ ^ ] ] ^ K A l t 4 + o o # % % % + X o + 4 t ",
"X + % # % # o o + 4 t k A L ^ ] ( ^ ~ ^ _ ] ] P A k r 4 + o   + 4 i l A P _ ] ] ^ ~ ^ ] ] _ K C z r 4 + o o + % # # # o ",
"# # + o + 4 r k C K _ ] ] ^ ~ ^ ] ] _ P A l i 4 + o o + % % # % # X o X 4 i l A P _ ] ] ^ ~ ~ ] ] ^ K B k r 5 O o o + $ ",
"5 3 t l C K ( | ] ~ ~ ^ ] ] ^ P C k i 4 + o o + % % % # o   o o + % % % + o o O 4 i z C L _ ] ] ^ ~ ^ ] ] ^ K C z t 4 4 ",
"K P ^ ] ( ^ ^ ^ ] ] _ P A l i 4 O   o + % % % # X   O 3 r k k r 4 X o o $ $ # % # X o X 4 i l A P _ ] ] ^ ^ ^ ] ] ^ K K ",
"^ ^ ~ ^ ] ] ^ P A k t 4 X o X $ % % % + X o o 1 t h B K ^ ] ] _ K C k r 4 +   o # % % # # X o X 4 t l A P ] ] ] ^ ~ ^ ^ ",
"( ] ( P A l i 4 + o X # $ % % % o o + 1 t k B K ( | _ ~ ~ ~ W ~ ^ ] ] _ K B k r 4 + o o % % % % + o o + 4 i l A K ] ] ] ",
"G n d q > = > 3 8 8 8 4 8 3 8 8 f b F I |  .| _ ^ _ ) ) _ ~ _ ) ) ) ) ) _ |  .} T F b s 4 8 8 8 4 8 8 8 3 > = > q f n H ",
"8 8 8 8 8 3 8 3 1 = 1 0 f b G ^ ~ _ ) ) ) _ |  .| T F m d 8 8 f n G T |  .] _ _ ) ) ~ _ _ G b f 0 1 = > 3 8 8 3 8 8 8 8 ",
"% # % # o o + 4 r k A K _ ] ] ~ Q ~ ] ] _ K B l i 4 + o X & & X o + 4 r z B L _ ] _ ^ ~ Q _ ] _ P A z t 3 O o o # # % % ",
"X o O 5 t k C K _ ] ] ^ ~ ~ ] ] _ P C l i 4 X o o + % # # # # & $ % + o o + 4 y l C P ^ ] ] ~ Q ^ ] ] ^ K C k t 4 o o O ",
"t z A P ^ ] ] ^ ^ ^ ] ] _ P C l t 4 + o o $ $ % % + + o X 5 : X o o + % % # # o o X 5 i l A U _ ] ] ^ ~ ^ ] ] ^ L C k t ",
"^ ] ( ^ ^ ^ ] ] ^ U C l i 4 X o o # $ $ # + o o O 5 t k B K P A k r 5 O o o # $ % # + X o + 4 i l A K _ ] ] ^ ^ ^ ] ] _ ",
"^ ^ ] | ^ P A l i 4 X o X + % # % + + o X 3 r k A K _ ] ] ^ ^ ( ] _ K C k t 4 + o o + % # $ # X o + 4 t l A P _ ] ] ^ ~ ",
"^ P A l t 5 X o X + % # % # + o + 4 r k A P ^ ] ] ^ Q ^ ^ | | ( ^ ~ ^ ] ] _ L C k i 4 O   o + % # % # o o + 4 t z A P ^ ",
"t 5 X o X # $ % % + + o + 4 r l A K ( | ( ^ ^ ^ ( ] ] P A k l A P _ ] ] ^ ^ ^ ] ] ] K C k r 4 + o o # % # # # o o o 5 t ",
"X # % # & # o o O 5 r k C K _ ] ( ^ Q ^ ] | ^ P B z t 4 X   o O 5 i l A P ^ ] ] ^ ~ ^ ] ] _ K C k r 4 + o o # $ % % + o ",
"# + o   X 3 r k C K _ ] ] ~ ~ ^ ] ] ( P A z t 4 + o X # % % # % # o o X 4 t l A U _ ] ] ^ ~ ^ ] ] ^ K B z t 3 O o o % + ",
"4 4 r z A K ^ ] ] ^ ~ ^ ] ] ] P A l i 4 X o X # % & # + o o o o + % % % + o o + 4 i l A P ^ ] ] ^ ~ ^ ( ] ^ K C k r : 5 ",
"K K _ ] ( ^ ~ ^ ] | ( P A z t 4 + o o + $ $ % + + o X 4 r k k r 4 + o o # % % $ + o   X 4 i l D P ( ] ] ^ ^ ^ ] ] _ K K ",
"^ ^ ^ ^ ] ] ^ P A l i 4 X o o + % % $ # o   + 4 r k C K _ ] ] _ K C k r 4 + o o # % % % + o o X 3 t l A P ^ ] ] ^ ~ ^ ^ ",
"] ] ( P A l i 4 X o X # % % % % o   + 4 r k B K _ ] _ ^ ~ E ~ ~ ^ _ ] ^ L B k r : o o o % % $ & # X o X 4 i l C P ] ] ] ",
"H n f q 1 = > 3 8 8 4 8 8 8 4 8 d b G P | | | _ ~ ) ) _ ) ) ) ) _ ) ) _ _ | | _ P F b d 8 8 8 3 8 8 8 4 3 > = 1 q d m D "
};
