/* XPM */
static char *_cd2d0e8a1714499b495e9afe0305c4f2C461H2eNsY97f6P[] = {
/* columns rows colors chars-per-pixel */
"64 64 3 1 ",
"  c None",
". c #000DFF",
"X c #85D58D",
/* pixels */
"                                                                ",
"                                                                ",
"                                                                ",
"                                                                ",
"                                                                ",
"                                                                ",
"                                                                ",
"                                                                ",
"                                                                ",
"                                                                ",
"                                                                ",
"                                                                ",
"                            ........                            ",
"                            ........                            ",
"                    ........XXXXXXXX........                    ",
"                    ........XXXXXXXX........                    ",
"                  ..XXXXXXXXXXXXXXXXXXXXXXXX..                  ",
"                  ..XXXXXXXXXXXXXXXXXXXXXXXX..                  ",
"                ..XXXXXXXXXXXXXXXXXXXXXXXXXXXX..                ",
"                ..XXXXXXXXXXXXXXXXXXXXXXXXXXXX..                ",
"              ..XXXXXXXXXXXXXXXXXXXXXXXXXXXXXXXX..              ",
"              ..XXXXXXXXXXXXXXXXXXXXXXXXXXXXXXXX..              ",
"              ..XXXXXXXXXXXXXXXXXXXXXXXXXXXXXXXX..              ",
"              ..XXXXXXXXXXXXXXXXXXXXXXXXXXXXXXXX..              ",
"              ..XXXXXXXXXXXXXXXXXXXXXXXXXXXXXXXX..              ",
"              ..XXXXXXXXXXXXXXXXXXXXXXXXXXXXXXXX..              ",
"                ..XXXXXXXXXXXXXXXXXXXXXXXXXXXX..                ",
"                ..XXXXXXXXXXXXXXXXXXXXXXXXXXXX..                ",
"                  ..XXXX......XXXX......XXXX..                  ",
"                  ..XXXX......XXXX......XXXX..                  ",
"                    ..XXXXXX..XXXX..XXXXXX..                    ",
"                    ..XXXXXX..XXXX..XXXXXX..                    ",
"                    ..XXXXXXXXXXXXXXXXXXXX..                    ",
"                    ..XXXXXXXXXXXXXXXXXXXX..                    ",
"            XXXX      ..XX....XXXX....XX..      XXXX            ",
"            XXXX      ..XX....XXXX....XX..      XXXX            ",
"          XXXXXXXXXX....XX............XX....XXXXXXXXXX          ",
"          XXXXXXXXXX....XX............XX....XXXXXXXXXX          ",
"  XX    XX    XXXX....XXXX....    ....XXXX....XXXX    XX    XX  ",
"  XX    XX    XXXX....XXXX....    ....XXXX....XXXX    XX    XX  ",
"    XXXX        ......XX    ..    ..    XX......        XXXX    ",
"    XXXX        ......XX    ..    ..    XX......        XXXX    ",
"              ......  XX  ..        ..  XX  ......              ",
"              ......  XX  ..        ..  XX  ......              ",
"            ......    XX  ..        ..  XX    ......            ",
"            ......    XX  ..        ..  XX    ......            ",
"            ....    XXXX    ..    ..    XXXX    ....            ",
"            ....    XXXX    ..    ..    XXXX    ....            ",
"            ....    XX      ..    ..      XX    ....            ",
"            ....    XX      ..    ..      XX    ....            ",
"          ....      XXXXXX    ....    XXXXXX      ....          ",
"          ....      XXXXXX    ....    XXXXXX      ....          ",
"          ....          XX  ..    ..  XX          ....          ",
"          ....          XX  ..    ..  XX          ....          ",
"            ....    XXXXXX..        ..XXXXXX    ....            ",
"            ....    XXXXXX..        ..XXXXXX    ....            ",
"            ....    XX      ..    ..      XX    ....            ",
"            ....    XX      ..    ..      XX    ....            ",
"          ....      XXXXXX            XXXXXX      ....          ",
"          ....      XXXXXX            XXXXXX      ....          ",
"        ....            XX            XX            ....        ",
"        ....            XX            XX            ....        ",
"                                                                ",
"                                                                "
};
