/* XPM */
static char *_cd7c50b6afc426ae88136d86e24ec5e8ThHgW0VqpfHw1Uf[] = {
/* columns rows colors chars-per-pixel */
"64 64 3 1 ",
"  c None",
". c #000DFF",
"X c #85D58D",
/* pixels */
"                                                                ",
"                                                                ",
"                                                                ",
"                                                                ",
"                                                                ",
"                                                                ",
"                                                                ",
"                                                                ",
"                                                                ",
"                                                                ",
"                                                                ",
"                                                                ",
"                            ........                            ",
"                            ........                            ",
"                    ........XXXXXXXX........                    ",
"                    ........XXXXXXXX........                    ",
"                  ..XXXXXXXXXXXXXXXXXXXXXXXX..                  ",
"                  ..XXXXXXXXXXXXXXXXXXXXXXXX..                  ",
"                ..XXXXXXXXXXXXXXXXXXXXXXXXXXXX..                ",
"                ..XXXXXXXXXXXXXXXXXXXXXXXXXXXX..                ",
"              ..XXXXXXXXXXXXXXXXXXXXXXXXXXXXXXXX..              ",
"              ..XXXXXXXXXXXXXXXXXXXXXXXXXXXXXXXX..              ",
"              ..XXXXXXXXXXXXXXXXXXXXXXXXXXXXXXXX..              ",
"              ..XXXXXXXXXXXXXXXXXXXXXXXXXXXXXXXX..              ",
"              ..XXXXXXXXXXXXXXXXXXXXXXXXXXXXXXXX..              ",
"              ..XXXXXXXXXXXXXXXXXXXXXXXXXXXXXXXX..              ",
"                ..XXXXXXXXXXXXXXXXXXXXXXXXXXXX..                ",
"                ..XXXXXXXXXXXXXXXXXXXXXXXXXXXX..                ",
"                  ..XXXX......XXXX......XXXX..                  ",
"                  ..XXXX......XXXX......XXXX..                  ",
"                    ..XXXXXX..XXXX..XXXXXX..                    ",
"                    ..XXXXXX..XXXX..XXXXXX..                    ",
"            ....    ..XXXXXXXXXXXXXXXXXXXX..    ....            ",
"            ....    ..XXXXXXXXXXXXXXXXXXXX..    ....            ",
"          ..XXXX........XX....XXXX....XX........XXXX..          ",
"          ..XXXX........XX....XXXX....XX........XXXX..          ",
"  ..    ..XXXXXXXXXX....XX............XX....XXXXXXXXXX..    ..  ",
"  ..    ..XXXXXXXXXX....XX............XX....XXXXXXXXXX..    ..  ",
"..XX....XX....XXXX....XXXX....    ....XXXX....XXXX....XX....XX..",
"..XX....XX....XXXX....XXXX....    ....XXXX....XXXX....XX....XX..",
"  ..XXXX..    ........XX..  ..    ..  ..XX........    ..XXXX..  ",
"  ..XXXX..    ........XX..  ..    ..  ..XX........    ..XXXX..  ",
"    ....      ........XX..    ....    ..XX........      ....    ",
"    ....      ........XX..    ....    ..XX........      ....    ",
"            ......  ..XX..    ....    ..XX..  ......            ",
"            ......  ..XX..    ....    ..XX..  ......            ",
"            ....  ..XXXX..  ..    ..  ..XXXX..  ....            ",
"            ....  ..XXXX..  ..    ..  ..XXXX..  ....            ",
"            ....  ..XX....  ..    ..  ....XX..  ....            ",
"            ....  ..XX....  ..    ..  ....XX..  ....            ",
"          ....    ..XXXXXX..  ....  ..XXXXXX..    ....          ",
"          ....    ..XXXXXX..  ....  ..XXXXXX..    ....          ",
"          ....      ....XX....    ....XX....      ....          ",
"          ....      ....XX....    ....XX....      ....          ",
"            ....  ..XXXXXX..        ..XXXXXX..  ....            ",
"            ....  ..XXXXXX..        ..XXXXXX..  ....            ",
"            ....  ..XX....  ..    ..  ....XX..  ....            ",
"            ....  ..XX....  ..    ..  ....XX..  ....            ",
"          ....    ..XXXXXX..        ..XXXXXX..    ....          ",
"          ....    ..XXXXXX..        ..XXXXXX..    ....          ",
"        ....        ....XX..        ..XX....        ....        ",
"        ....        ....XX..        ..XX....        ....        ",
"                        ..            ..                        ",
"                        ..            ..                        "
};
