/* XPM */
static char *_a4baa69ff4643fbd8ceced7e4be347a8E26BfnAqgGXco05[] = {
/* columns rows colors chars-per-pixel */
"64 64 3 1 ",
"  c None",
". c #000DFF",
"X c #85D58D",
/* pixels */
"                                                                ",
"                                                                ",
"                            ........                            ",
"                            ........                            ",
"                    ........XXXXXXXX........                    ",
"                    ........XXXXXXXX........                    ",
"                  ..XXXXXXXXXXXXXXXXXXXXXXXX..                  ",
"                  ..XXXXXXXXXXXXXXXXXXXXXXXX..                  ",
"                ..XXXXXXXXXXXXXXXXXXXXXXXXXXXX..                ",
"                ..XXXXXXXXXXXXXXXXXXXXXXXXXXXX..                ",
"              ..XXXXXXXXXXXXXXXXXXXXXXXXXXXXXXXX..              ",
"              ..XXXXXXXXXXXXXXXXXXXXXXXXXXXXXXXX..              ",
"              ..XXXXXXXXXXXXXXXXXXXXXXXXXXXXXXXX..              ",
"              ..XXXXXXXXXXXXXXXXXXXXXXXXXXXXXXXX..              ",
"              ..XXXXXXXXXXXXXXXXXXXXXXXXXXXXXXXX..              ",
"              ..XXXXXXXXXXXXXXXXXXXXXXXXXXXXXXXX..              ",
"                ..XXXXXX..XXXXXXXXXXXX..XXXXXX..                ",
"                ..XXXXXX..XXXXXXXXXXXX..XXXXXX..                ",
"                  ..XXXX......XXXX......XXXX..                  ",
"                  ..XXXX......XXXX......XXXX..                  ",
"                    ..XXXXXX..XXXX..XXXXXX..                    ",
"                    ..XXXXXX..XXXX..XXXXXX..                    ",
"                    ..XXXXXXXXXXXXXXXXXXXX..                    ",
"                    ..XXXXXXXXXXXXXXXXXXXX..                    ",
"                      ..XX....XXXX....XX..                      ",
"                      ..XX....XXXX....XX..                      ",
"                    ....XX............XX....                    ",
"                    ....XX............XX....                    ",
"                  ....XXXX....    ....XXXX....                  ",
"                  ....XXXX....    ....XXXX....                  ",
"                  ....XXXX............XXXX....                  ",
"                  ....XXXX............XXXX....                  ",
"                  ......XX..  ....  ..XX......                  ",
"                  ......XX..  ....  ..XX......                  ",
"                    ..  ..XX........XX..  ..                    ",
"                    ..  ..XX........XX..  ..                    ",
"                    ......XX........XX......                    ",
"                    ......XX........XX......                    ",
"                      ..XX....    ....XX..                      ",
"                      ..XX....    ....XX..                      ",
"                      ....XX..    ..XX....                      ",
"                      ....XX..    ..XX....                      ",
"                    ..  ..XX........XX..  ..                    ",
"                    ..  ..XX........XX..  ..                    ",
"                    ....XX..  ....  ..XX....                    ",
"                    ....XX..  ....  ..XX....                    ",
"                      ....XX..    ..XX....                      ",
"                      ....XX..    ..XX....                      ",
"                      ....XX..    ..XX....                      ",
"                      ....XX..    ..XX....                      ",
"                    ..    ..XX....XX..    ..                    ",
"                    ..    ..XX....XX..    ..                    ",
"                            ..    ..                            ",
"                            ..    ..                            ",
"                                                                ",
"                                                                ",
"                                                                ",
"                                                                ",
"                                                                ",
"                                                                ",
"                                                                ",
"                                                                ",
"                                                                ",
"                                                                "
};
