/* XPM */
static char *b4bc65fa3b7f44c7dc2b522995cf5e59KUMmZK0pKS3x222z[] = {
/* columns rows colors chars-per-pixel */
"64 64 3 1 ",
"  c None",
". c #000DFF",
"X c #85D58D",
/* pixels */
"                                                                ",
"                                                                ",
"                            ........                            ",
"                            ........                            ",
"                    ........XXXXXXXX........                    ",
"                    ........XXXXXXXX........                    ",
"                  ..XXXXXXXXXXXXXXXXXXXXXXXX..                  ",
"                  ..XXXXXXXXXXXXXXXXXXXXXXXX..                  ",
"                ..XXXXXXXXXXXXXXXXXXXXXXXXXXXX..                ",
"                ..XXXXXXXXXXXXXXXXXXXXXXXXXXXX..                ",
"              ..XXXXXXXXXXXXXXXXXXXXXXXXXXXXXXXX..              ",
"              ..XXXXXXXXXXXXXXXXXXXXXXXXXXXXXXXX..              ",
"              ..XXXXXXXXXXXXXXXXXXXXXXXXXXXXXXXX..              ",
"              ..XXXXXXXXXXXXXXXXXXXXXXXXXXXXXXXX..              ",
"              ..XXXXXXXXXXXXXXXXXXXXXXXXXXXXXXXX..              ",
"              ..XXXXXXXXXXXXXXXXXXXXXXXXXXXXXXXX..              ",
"                ..XXXXXX..XXXXXXXXXXXX..XXXXXX..                ",
"                ..XXXXXX..XXXXXXXXXXXX..XXXXXX..                ",
"                  ..XXXX......XXXX......XXXX..                  ",
"                  ..XXXX......XXXX......XXXX..                  ",
"                    ..XXXXXX..XXXX..XXXXXX..                    ",
"                    ..XXXXXX..XXXX..XXXXXX..                    ",
"                    ..XXXXXXXXXXXXXXXXXXXX..                    ",
"                    ..XXXXXXXXXXXXXXXXXXXX..                    ",
"                      ..XX....XXXX....XX..                      ",
"                      ..XX....XXXX....XX..                      ",
"                    ....XX............XX....                    ",
"                    ....XX............XX....                    ",
"                  ....XXXX....    ....XXXX....                  ",
"                  ....XXXX....    ....XXXX....                  ",
"                  ....XXXX  ........  XXXX....                  ",
"                  ....XXXX  ........  XXXX....                  ",
"                  ....  XX    ....    XX  ....                  ",
"                  ....  XX    ....    XX  ....                  ",
"                    ..    XX  ....  XX    ..                    ",
"                    ..    XX  ....  XX    ..                    ",
"                    ....  XX  ....  XX  ....                    ",
"                    ....  XX  ....  XX  ....                    ",
"                      ..XX  ..    ..  XX..                      ",
"                      ..XX  ..    ..  XX..                      ",
"                      ..  XX..    ..XX  ..                      ",
"                      ..  XX..    ..XX  ..                      ",
"                    ..    XX  ....  XX    ..                    ",
"                    ..    XX  ....  XX    ..                    ",
"                    ....XX    ....    XX....                    ",
"                    ....XX    ....    XX....                    ",
"                      ..  XX..    ..XX  ..                      ",
"                      ..  XX..    ..XX  ..                      ",
"                      ..  XX        XX  ..                      ",
"                      ..  XX        XX  ..                      ",
"                    ..      XX    XX      ..                    ",
"                    ..      XX    XX      ..                    ",
"                                                                ",
"                                                                ",
"                                                                ",
"                                                                ",
"                                                                ",
"                                                                ",
"                                                                ",
"                                                                ",
"                                                                ",
"                                                                ",
"                                                                ",
"                                                                "
};
