/* XPM */
static char *_3d5c55807064653ab582fb9ad1f84e1CfyEUQDlszHZlGp8[] = {
/* columns rows colors chars-per-pixel */
"60 60 184 2 ",
"   c None",
".  c #060200",
"X  c #060300",
"o  c #090500",
"O  c #0A0400",
"+  c #080600",
"@  c #090600",
"#  c #0A0600",
"$  c #0B0600",
"%  c #0D0400",
"&  c #0D0700",
"*  c #0A0800",
"=  c #0B0A00",
"-  c #0D0800",
";  c #0E0800",
":  c #0F0800",
">  c #0E0900",
",  c #0F0900",
"<  c #0F0A00",
"1  c #0E0B01",
"2  c #0E0D00",
"3  c #0E080E",
"4  c #110800",
"5  c #100900",
"6  c #100B00",
"7  c #110B00",
"8  c #120B01",
"9  c #170B00",
"0  c #120D00",
"q  c #130D01",
"w  c #120F02",
"e  c #140D00",
"r  c #140E00",
"t  c #150E01",
"y  c #170F00",
"u  c #170F01",
"i  c #140D02",
"p  c #100D04",
"a  c #120E05",
"s  c #130F06",
"d  c #1A0B00",
"f  c #1C0E00",
"g  c #100D08",
"h  c #121001",
"j  c #101200",
"k  c #151000",
"l  c #171000",
"z  c #171002",
"x  c #171103",
"c  c #171700",
"v  c #151304",
"b  c #141006",
"n  c #151107",
"m  c #171504",
"M  c #191101",
"N  c #191002",
"B  c #191203",
"V  c #1C1200",
"C  c #1D1201",
"Z  c #1C1102",
"A  c #1A1304",
"S  c #191704",
"D  c #191506",
"F  c #1C1706",
"G  c #1E1706",
"H  c #141208",
"J  c #151208",
"K  c #14110B",
"L  c #15120A",
"P  c #17140A",
"I  c #15130E",
"U  c #17150E",
"Y  c #1A150B",
"T  c #1E1708",
"R  c #19150D",
"E  c #1E1B0D",
"W  c #1E1A0E",
"Q  c #1E1B12",
"!  c #1E1B14",
"~  c #251300",
"^  c #201400",
"/  c #221500",
"(  c #231702",
")  c #231703",
"_  c #2A1401",
"`  c #261B00",
"'  c #231A07",
"]  c #271C04",
"[  c #281C02",
"{  c #20170D",
"}  c #231B09",
"|  c #231B0A",
" . c #231B0B",
".. c #231C0B",
"X. c #231A0D",
"o. c #231D0F",
"O. c #251C0F",
"+. c #201B12",
"@. c #201C13",
"#. c #231E13",
"$. c #261D10",
"%. c #201C17",
"&. c #2B2003",
"*. c #2C2003",
"=. c #2D2303",
"-. c #2C2500",
";. c #2A2304",
":. c #2C2004",
">. c #2D2005",
",. c #2F2207",
"<. c #232308",
"1. c #2B220B",
"2. c #2C230A",
"3. c #2F200F",
"4. c #2F270D",
"5. c #322203",
"6. c #322007",
"7. c #322306",
"8. c #392003",
"9. c #3B2707",
"0. c #352A04",
"q. c #39260E",
"w. c #36280B",
"e. c #342C08",
"r. c #392808",
"t. c #232010",
"y. c #232014",
"u. c #2C2212",
"i. c #2C2313",
"p. c #2D2511",
"a. c #282317",
"s. c #282515",
"d. c #2C231B",
"f. c #2B251E",
"g. c #2A261E",
"h. c #2D2A19",
"j. c #302617",
"k. c #322A15",
"l. c #382B10",
"z. c #3B341C",
"x. c #292521",
"c. c #2B2720",
"v. c #262823",
"b. c #302C22",
"n. c #322F23",
"m. c #382F27",
"M. c #343025",
"N. c #3E3223",
"B. c #32342D",
"V. c #3D362F",
"C. c #323230",
"Z. c #442F0B",
"A. c #493204",
"S. c #41320F",
"D. c #413417",
"F. c #663300",
"G. c #443627",
"H. c #403B2C",
"J. c #403932",
"K. c #413B32",
"L. c #433B34",
"P. c #443935",
"I. c #745606",
"U. c #6B4E19",
"Y. c #724715",
"T. c #7D5A1C",
"R. c #474132",
"E. c #414134",
"W. c #4E4938",
"Q. c #514732",
"!. c #534D3B",
"~. c #595039",
"^. c #6D5A38",
"/. c #7D7259",
"(. c #5F5460",
"). c #6A6562",
"_. c #757165",
"`. c #E2A954",
"'. c #D0AB72",
"]. c #FBC15C",
"[. c #FFC788",
"{. c #EAC7AB",
"}. c #FFDCB6",
"|. c #FFE8D4",
/* pixels */
"                                                                                                                        ",
"                                                                                                                        ",
"                                                                                                                        ",
"                                                                                                                        ",
"                                                                                                                        ",
"                                                                                                                        ",
"                                                                                                                        ",
"                                                                        x.                                              ",
"                                    - -                               x.x.                                              ",
"                                    - ).- -                         x.x.-                                               ",
"                                    - w.).- -                   - - ).- ^.                                              ",
"                                    - x.).).).9.- - - 6.>.- - 6.- ).- S.                                                ",
"                                    - x.g.).).).).).).).).- 0.=.2.D.- x.                                                ",
"                                      - *.).).).).).F.F.F.F.F.F.F.I.A.x.                                                ",
"                                        S.).).).x.x.A.5.e.;.,.>.*.U.x.x.                                                ",
"                                        x.).x.= = = = = = = = = 1.` 4.x.                                                ",
"                                      x.x.= = = = x.x.x.x.x.x.x.= = H.x.~.                                              ",
"                                      x.F.= = = x.x.x.x.x.x.x.x.x.= = B.R.                                              ",
"                                    T.x.F.= l.z.x.x.V.x.x.x.x.x.x.x.!.W.M._.                                            ",
"                                  {.x.F.F.F.' x.x.x.K.x.x.x.x.x.x.x.x.- M.c.L.                                          ",
"                                  '.x.F.F.F.p.x.x.x.x.x.x.x.x.x.x.x.x.x.).).P.                                          ",
"                                  ].x.F.F.F.x.x.G.x.x.x.x.x.x.x.x.x.x.x.).).b.M.                                        ",
"                                  x.x.F.F.= x.x.N.x.x.x.x.x.x.x.x.x.x.x.).).).d.                                        ",
"                                  x.F.F.F.= x.x.x.x.x.x.x.x.x.x.x.x.x.x.).).).$.                                        ",
"                                  x.F.F.F.F.x.x.x.x.x.x.x.x.A x.x.o.g.x.).).).p.                                        ",
"                                  x.F.F.F.F.x.x.x.x.x.x.x.x.x.x.x.x.x.x.).).).s.                                        ",
"                                  x.F.F.F.= x.x.x.x.x.x.x.x.x.x.x.o.x.x.).).).#.                                        ",
"                                  x.9.x.Y.= x.x.x.x.x.x.x.x.x.x.x.x.x.x.).).).$.                                        ",
"                                  x.x.x.F.x.x.x.x.x.x.x.x.x.x.x.x.x.x.x.#.| ).O.                                        ",
"                                  x.x.x.F.x.x.x.x.x.F.F.).).).x.x.x.).x.#.x.).k.                                        ",
"                                  x.x.x.x.x.x.l x.x.F.F.).).).x.x.x.).x.g.x.| /.                                        ",
"                                  [.x.x.x.x.x.x.x.x.F.F.).).).x.= ).- x.x.y.G                                           ",
"                                  }.x.x.x.x.x.x.x.4 F.F.F.).).).= = x.).x.y.W                                           ",
"                                  |.x.x.F.x.] x.x.w - F.F.F.).).= = x.x.x.+.h.                                          ",
"                                    `.x.F.x.Z x.x.w w F.F.F.).).{ = x.x.x.@.C.                                          ",
"                                      x.x.x.[ l x.- & - & F.F.w ).x.H x.x.Y E.                                          ",
"                                      x.x.x.y B x.4 & - & - F.F.).x.x.x.x.H g.                                          ",
"                                      x.x.c ~ B x.x.x.w x.= <.F.).).x.x.x.H @.                                          ",
"                                        x.x.Z 4 x.} x.x.x.= = 4 F.).x.= x.v R                                           ",
"                                        =.x.j w ( T x.x.x.  = _ F.).x.x.x.s I                                           ",
"                                          F.F./ ( T B x.    - x.Z - ).x.= s U                                           ",
"                                          d F.F.x.Q.x.x.    C x.x.t ).x.x.= H                                           ",
"                                            f x.x.b x.x.    & x.x.l = ).x.= H U                                         ",
"                                            d F.x.m x.x.    - x.x.x.$ - ).x.= I %.                                      ",
"                                            x.8.x.l x.v     j.x.x.x.$ j ).x.x.- !         = =                           ",
"                                            x.F.x.x.x.x.S   % f.x.t & S     x.x.g g.    - = =                           ",
"                                            F.F.x.x.x.x.4   v x.x.s & i.    H x.- t w w = = =                           ",
"                                            F.F.x.x.x.x.-   x.x.u.- t 4       2 F.F.).= = =                             ",
"                                            x.3 x.x.x.x.-     q.B - $ W         v.F.F.F.=                               ",
"                                            x.x.x.x.x.x.$     G $ = = (.                                                ",
"                                              x.x.x.x.x.= $     . = $ P.                                                ",
"                                                  x.x.x.- .     = = =                                                   ",
"                                                  x.x.x.= -                                                             ",
"                                                  x.x.x.= w                                                             ",
"                                                  x.x.x.x.                                                              ",
"                                                    x.x.x.                                                              ",
"                                                                                                                        ",
"                                                                                                                        ",
"                                                                                                                        ",
"                                                                                                                        "
};
