/* XPM */
static char *result[] = {
/* columns rows colors chars-per-pixel */
"60 60 182 2 ",
"   c #0D0802",
".  c #100A04",
"X  c #160A0A",
"o  c #110D08",
"O  c #140F0A",
"+  c #15100B",
"@  c #15100C",
"#  c #16110C",
"$  c #17120D",
"%  c #18130E",
"&  c #19130E",
"*  c #19140F",
"=  c #1A1510",
"-  c #1A1511",
";  c #1A1610",
":  c #1A1611",
">  c #1B1611",
",  c #1C1712",
"<  c #1C1812",
"1  c #1D1813",
"2  c #1D1913",
"3  c #1E1814",
"4  c #1E1914",
"5  c #1E1915",
"6  c #1E1A14",
"7  c #1F1A15",
"8  c #1C1917",
"9  c #1F1A16",
"0  c #341E08",
"q  c #201B16",
"w  c #201C16",
"e  c #211C18",
"r  c #211E1B",
"t  c #221E1A",
"y  c #231E1A",
"u  c #231F1B",
"i  c #241F1B",
"p  c #382009",
"a  c #25201B",
"s  c #25201C",
"d  c #25211C",
"f  c #25221D",
"g  c #26221D",
"h  c #26231D",
"j  c #26221E",
"k  c #27231F",
"l  c #28241F",
"z  c #34271B",
"x  c #252425",
"c  c #282420",
"v  c #292520",
"b  c #282421",
"n  c #282521",
"m  c #292521",
"M  c #2A2621",
"N  c #292423",
"B  c #2A2622",
"V  c #2B2723",
"C  c #2C2823",
"Z  c #2B2824",
"A  c #2C2824",
"S  c #2C2825",
"D  c #2D2B25",
"F  c #2E2A26",
"G  c #2F2B27",
"H  c #2E2D26",
"J  c #2F2C27",
"K  c #2F2D28",
"L  c #302527",
"P  c #352C23",
"I  c #302C27",
"U  c #352E27",
"Y  c #392E23",
"T  c #302C28",
"R  c #302C29",
"E  c #312D29",
"W  c #322D29",
"Q  c #312D2A",
"!  c #322E2A",
"~  c #332F2B",
"^  c #33302B",
"/  c #37312B",
"(  c #34302C",
")  c #34312C",
"_  c #35312C",
"`  c #34302D",
"'  c #34312D",
"]  c #35312D",
"[  c #35312E",
"{  c #36312E",
"}  c #36322E",
"|  c #36322F",
" . c #36332F",
".. c #37332F",
"X. c #37342F",
"o. c #38332F",
"O. c #38342F",
"+. c #382F30",
"@. c #353330",
"#. c #393330",
"$. c #383430",
"%. c #383431",
"&. c #393531",
"*. c #393432",
"=. c #393532",
"-. c #3A3532",
";. c #3A3632",
":. c #3B3733",
">. c #3C3532",
",. c #3D3832",
"<. c #3C3933",
"1. c #3C3834",
"2. c #3C3835",
"3. c #3E3B35",
"4. c #3D3936",
"5. c #3D3A37",
"6. c #3E3A36",
"7. c #3F3B37",
"8. c #3F3B38",
"9. c #3F3D39",
"0. c #4B2906",
"q. c #5B360F",
"w. c #553311",
"e. c #5A3918",
"r. c #593B1F",
"t. c #603101",
"y. c #663300",
"u. c #6A3300",
"i. c #483521",
"p. c #433C31",
"a. c #403B39",
"s. c #403C39",
"d. c #413C39",
"f. c #423D39",
"g. c #453F3D",
"h. c #22451E",
"j. c #2B5929",
"k. c #44403C",
"l. c #45413D",
"z. c #45423E",
"x. c #46423E",
"c. c #47433F",
"v. c #47443F",
"b. c #49453E",
"n. c #493D40",
"m. c #474440",
"M. c #474540",
"N. c #444444",
"B. c #484340",
"V. c #484440",
"C. c #484541",
"Z. c #494541",
"A. c #4B4742",
"S. c #4C4744",
"D. c #464E40",
"F. c #4D4942",
"G. c #4F4B47",
"H. c #4F4A48",
"J. c #514C49",
"K. c #52514D",
"L. c #55514E",
"P. c #5D554B",
"I. c #564750",
"U. c #5A5652",
"Y. c #5B5754",
"T. c #5F5956",
"R. c #5E5A56",
"E. c #5F5B56",
"W. c #5F5B57",
"Q. c #605C59",
"!. c #5C5561",
"~. c #676260",
"^. c #6A6562",
"/. c #6B6764",
"(. c #6E6866",
"). c #76716E",
"_. c #7D6179",
"`. c #8C6C88",
"'. c #8F718C",
"]. c #B98EB9",
"[. c #D2A0D3",
"{. c None",
/* pixels */
"{.{.{.{.{.{.{.{.{.{.{.{.{.{.{.{.{.{.{.{.{.{.{.{.{.{.{.{.{.{.{.{.{.{.{.{.{.{.{.{.{.{.{.{.{.{.{.{.{.{.{.{.{.{.{.{.{.{.{.{.",
"{.{.{.{.{.{.{.{.{.{.{.{.{.{.{.{.{.{.{.{.{.{.{.{.{.{.{.{.{.{.{.{.{.{.{.{.{.{.{.{.{.{.{.{.{.{.{.{.{.{.{.{.{.{.{.{.{.{.{.{.",
"{.{.{.{.{.{.{.{.{.{.{.{.{.{.{.{.{.{.{.{.{.{.{.{.{.{.{.{.{.{.{.{.{.{.{.{.{.{.{.{.{.{.{.{.{.{.{.{.{.{.{.{.{.{.{.{.{.{.{.{.",
"{.{.{.{.{.{.{.{.{.{.{.{.{.{.{.{.{.{.{.{.{.{.{.{.{.{.{.{.{.{.{.{.{.{.{.{.{.{.{.{.{.{.{.{.{.^.4.{.{.{.{.{.{.{.{.{.{.{.{.{.",
"{.{.{.{.{.{.{.{.{.{.{.{.{.{.{.{.{.{.{.{.{.{.{.{.{.{.{.{.{.{.{.{.{.{.{.{.{.{.{.{.{.{.{.{.{.4.! ^.{.{.{.{.{.{.{.{.{.{.{.{.",
"{.{.{.{.{.{.{.{.{.{.{.{.{.{.{.{.{.{.{.{.{.{.{.{.{.{.{.{.{.{.{.{.{.{.{.{.{.{.{.{.{.{.{.{.{.^.m m {.{.{.{.{.{.{.{.{.{.{.{.",
"{.{.{.{.{.{.{.{.{.{.{.{.{.{.{.{.{.{.{.{.{.{.{.{.{.{.{.{.{.{.{.{.{.{.{.{.{.{.{.{.{.{.{.{.{.{.m > 4.{.{.{.{.{.{.{.{.{.{.{.",
"{.{.{.{.{.{.{.{.{.{.{.{.{.{.{.{.{.{.{.{.{.{.{.{.{.{.{.{.{.{.{.{.{.{.{.{.{.{.{.{.{.{.{.{.{.{.! m > ^.{.{.{.{.{.{.{.{.{.{.",
"{.{.{.{.{.{.{.{.{.{.{.{.{.{.{.{.{.{.{.{.{.{.{.{.{.{.{.{.{.{.{.{.{.{.{.{.{.{.{.{.{.{.{.{.{.{.^.m > > {.{.{.{.{.{.{.{.{.{.",
"{.{.{.{.{.{.{.{.{.{.{.{.{.{.{.{.{.{.{.{.{.{.{.{.{.{.{.{.{.{.{.{.{.{.{.{.{.{.{.{.{.{.{.{.{.{.{.> > ! {.{.{.{.{.{.{.{.{.{.",
"{.{.{.{.{.{.{.{.{.{.{.{.{.{.{.{.{.{.{.{.{.{.{.{.{.{.{.{.{.{.{.{.{.{.{.{.{.{.{.{.{.{.{.{.{.{.{.> > > Z.{.{.{.{.{.{.{.{.{.",
"{.{.{.{.{.{.{.{.{.{.{.{.{.{.{.{.{.{.{.{.{.{.{.{.{.{.{.{.{.{.{.{.{.{.{.{.{.{.{.{.{.{.{.{.{.{.{.! > > Z.{.{.{.{.{.{.{.{.{.",
"{.{.{.{.{.{.{.{.{.{.{.{.{.{.{.{.{.{.{.{.{.{.{.{.{.{.{.{.{.{.{.{.{.{.{.{.{.{.{.{.{.{.{.{.{.{.{.! > > ! {.{.{.{.{.{.{.{.{.",
"{.{.{.{.{.{.{.{.{.{.{.{.{.{.{.{.{.{.{.{.{.{.{.{.{.{.{.{.{.{.{.{.{.{.{.{.{.{.{.{.{.{.{.{.{.{.{.! ! ! 4.{.{.{.{.{.{.{.{.{.",
"{.{.{.{.{.{.{.{.{.{.{.{.{.{.{.{.{.{.{.{.{.{.{.{.{.{.{.{.{.{.{.{.{.{.{.{.{.{.{.{.{.{.{.{.{.{.{.! ! ! 4.{.{.{.{.{.{.{.{.{.",
"{.{.{.{.{.{.{.{.{.{.{.{.{.{.{.{.{.{.{.{.{.{.{.{.{.{.{.{.{.{.{.{.{.{.{.{.{.{.{.{.{.{.{.{.{.{.{.^.! ! 4.{.{.{.{.{.{.{.{.{.",
"{.{.{.{.{.{.{.{.{.{.{.{.{.{.{.{.{.{.{.{.{.{.{.{.{.{.{.{.{.{.{.{.{.{.{.{.{.{.{.{.{.{.{.{.{.{.{.^.! ! Z.{.{.{.{.{.{.{.{.{.",
"{.{.{.{.{.{.{.{.{.{.{.{.{.{.{.{.{.{.{.{.{.{.{.{.{.{.{.{.{.{.{.{.{.{.{.{.{.{.{.{.{.{.{.{.{.{.{.{.y.! Z.{.{.{.{.{.{.{.{.{.",
"{.{.{.{.{.{.{.{.{.{.{.{.{.{.{.{.{.{.{.{.{.{.{.{.{.{.{.{.{.{.{.{.{.{.{.{.{.{.{.{.{.{.{.{.{.{.{.{.y.U y.^.{.{.{.{.{.{.{.{.",
"{.{.{.{.{.{.{.{.{.{.{.{.{.{.{.{.{.{.{.{.{.{.{.{.{.{.{.{.{.{.{.{.{.{.{.{.{.{.{.{.{.{.{.{.{.{.{.{.Z.y.y.y.{.{.{.{.{.{.{.{.",
"{.{.{.{.{.{.{.{.{.{.{.{.{.{.{.{.{.{.{.{.{.{.{.{.{.{.{.{.{.{.{.{.{.{.{.{.{.{.{.{.{.{.{.{.{.{.{.{.Z.y.y.^.{.{.{.{.{.{.{.{.",
"{.{.{.{.{.{.{.{.{.{.{.{.{.{.{.{.{.{.{.{.{.{.{.{.{.{.{.{.{.{.{.{.{.{.{.{.{.{.{.{.{.{.{.{.{.{.{.^.Z.y.y.{.{.{.{.{.{.{.{.{.",
"{.{.{.{.{.{.{.{.N.q.{.{.{.{.{.{.{.{.{.{.{.{.{.{.{.{.{.{.{.{.{.{.{.{.{.{.{.{.{.{.{.{.{.{.{.{.{.Z.Z.y.y.{.{.{.{.{.{.{.{.{.",
"{.{.{.{.F.{.{.{.P y.{.{.{.{.{.{.{.{.{.{.{.{.{.{.{.{.{.{.{.{.{.{.{.{.{.{.{.{.{.{.{.{.{.{.{.{.{.Z.Z.y.^.{.{.{.{.{.{.{.{.{.",
"{.{.{.{.L a.h I.`.y.y.{.{.{.{.{.{.{.{.{.{.{.{.{.{.{.{.{.{.{.{.{.{.{.{.{.{.{.{.{.{.{.{.{.{.{.^.Z.y.Z.{.{.{.{.{.{.{.{.{.{.",
"{./.K.n.j.9.H [.].!.y.{.{.{.{.{.{.{.{.{.{.{.{.{.{.{.{.{.{.{.{.{.{.{.{.{.{.{.{.{.{.{.{.{.{.{.Z.Z.y.Z.{.{.{.{.{.{.{.{.{.{.",
"{.1.! ! h.D.M '._.*.@.{.{.{.{.{.{.{.{.{.{.{.{.{.{.{.{.{.{.{.{.{.{.{.{.{.{.{.{.{.{.{.{.{.{.Z.Z.y.y.^.{.{.{.{.{.{.{.{.{.{.",
"{.! 0 0 X 6 1 4 +.D ^ | Y.{.{.{.{.{.{.{.{.{.{.{.{.{.{.{.{.{.{.{.{.{.{.{.{.{.{.{.{.{.{.{.Z.Z.y.y.Z.{.{.{.{.{.{.{.{.{.{.{.",
"{.! y.0.8 & * % f G V , L.{.{.{.{.{.{.{.{.{.{.^.^.Z.Z.Z.y.Z.Z.^.Z.^.y.Z.Z.Z.Z.Z.Z.Z.Z.y.y.y.y.y.Z.{.{.{.{.{.{.{.{.{.{.{.",
"{.{.! y.x d 5 = i 4 j > m x.Z.^.^.^.^.^.Z.Z.Z.Z.Z.y.y.y.y.y.y.Z.Z.e.y.y.y.y.y.y.y.y.y.y.y.y.y.y.Z.{.{.{.{.{.{.{.{.{.{.{.",
"{.{.{.! z j Z 1 = m m > m B m m m m m ! ! y.Z.y.y.y.y.y.y.y.y.y.y.y.y.y.y.y.y.y.y.y.y.y.y.Z.y.y.Z.{.{.{.{.{.{.{.{.{.{.{.",
"{.{.{.{.! ! m s m m m > m m m m m > > m > ! ! ! ! ! y.y.y.y.y.y.y.y.y.y.y.y.y.y.y.y.y.y.y.Z.Z.Z.Z.{.{.{.{.{.{.{.{.{.{.{.",
"{.{.{.{.{.H.! m m m > > > m m m m > > > > > > m m m m y.! y.y.y.y.y.y.y.y.y.y.y.y.y.y.y.y.y.Z.Z.Z.Z.{.{.{.{.{.{.{.{.{.{.",
"{.{.{.{.{.o.> ! m m > > > > m > > > > > > > > > m m m ! m y.y.y.y.y.y.y.y.y.y.y.y.y.y.y.y.y.y.Z.Z.Z.{.{.{.{.{.{.{.{.{.{.",
"{.{.{.{.{.K > > > m m > > > > > > > > m > > > > m m m m ! ! ! y.y.y.y.y.y.y.y.y.y.y.y.y.y.y.y.Z.Z.V.{.{.{.{.{.{.{.{.{.{.",
"{.{.{.{.{.{.{.> > > > > > > > > > > > m > > > > m m m m t ! ! Y y.y.! y.y.y.y.y.y.y.y.y.y.y.y.y.w.~.B.{.{.{.{.{.{.{.{.{.",
"{.{.{.{.{.{.{.{.> > > > > > > > > y.y.> > > > > m ! ! m m m m ! ! y.! 4.! y.y.y.y.y.y.y.! ! u.t.,.% k.{.{.{.{.{.{.{.{.{.",
"{.{.{.{.{.{.{.{.> > > > > > > m > p y.y.y.> > > m m ! ! m m m m m ! ! 4.y.y.y.y.y.y.y.! ! / r.i.V.% } S.{.{.{.{.{.{.{.{.",
"{.{.{.{.{.{.{.{.{.4.> > > > > m m 4.! ! ! > > > m ! ! ! ! m m m ! ! ! ! ! y.y.y.y.! ! ! !  .4.l.V.% k l.{.{.{.{.{.{.{.{.",
"{.{.{.{.{.{.{.{.{.! ! m > > > 7 4.4.4.4.y.y.> > > m ! m ! m m ! ! ! ! ! ! 4.{ y.m m m m ! ;.2.V.v.% k } 3.{.{.{.{.{.{.{.",
"{.{.{.{.{.{.{.{.{.E ! ! > > > y j m 4.4.y.y.> > > m ! m m m m ! ! ! ! ! ! ! ! m > > m E [ 4.6.c.% % m k ] {.{.{.{.{.{.{.",
"{.{.{.{.{.{.{.{.{.Z.m m > > > - 7 g 4.4.4.y.y.> m ! ! m m m m m ! ! > > > > > > > s m ! [ 4.8.U.% % A % % m.{.{.{.{.{.{.",
"{.{.{.{.{.{.{.{.{.{.{.> > m 1 q e = %.4.> y.y.> m ! ! m m ! ! m ! ! > > > > m B $ + y G ! s.%.c.% % %.% % % A.{.{.{.{.{.",
"{.{.{.{.{.{.{.{.{.{.{.B B 1 A A l = 4 g > > y.m m ! ! ! 4.4.4.4.! ! ! F > ! ! $ + % 3 S c.( c.c.% [ W.% % % &.g.{.{.{.{.",
"{.{.{.{.{.{.{.{.{.{.{.{.B B B B l $   : : , y.! ! 4.^.^.4.Z.Z.G.4.4.4.4.! 4.4.A $ + s T c.c.c.c.% =.W.% % % % ..z.{.{.{.",
"{.{.{.{.{.{.{.{.{.{.{.{.B B b u m : : : : ..) ) ) {.{.{.{.{.{.{.{.{.{.{.{.{.{.{.+ + q F ~ c.c.A % [ % c.c.% % % 7.#.{.{.",
"{.{.{.{.{.{.{.{.{.{.{.v B B j F : : : P.W X.) ) ) {.{.{.{.{.{.{.{.{.{.{.{.{.{.{.{.O + M I c.c.A j [ ' W.c.c.% % Z.Q {.{.",
"{.{.{.{.{.{.{.{.{.{.N a B : C : : : b.p.r E ) ) ) {.{.{.{.{.{.{.{.{.{.{.{.{.{.{.{.{.% V E E 4.A % {.{.{.% c.c.% % -.{.{.",
"{.{.{.{.{.{.{.{.{.<.n B 4 : : {.{.{.{.f.r ) ) ) ) {.{.{.{.{.{.{.{.{.{.{.{.{.{.{.{.{.{.E T =.:.A + {.{.{.{.E.c.W.m R {.{.",
"{.{.{.{.{.{.{.{.{.$.B B : : {.{.{.{.{.{._ ) ) ) {.{.{.{.{.{.{.{.{.{.{.{.{.{.{.{.{.{.{.M.;.` ~ A + {.{.{.{.{.T.R.W.9 5.{.",
"{.{.{.{.{.{.{.{.% B B B {.{.{.{.{.{.{.{.{.) r ) {.{.{.{.{.{.{.{.{.{.{.{.{.{.{.{.{.{.{.{.C.m A A @ {.{.{.{.{.{.{.W.. ! {.",
"{.{.{.{.{.{.{.{.% B B B {.{.{.{.{.{.{.{.{.) r ) {.{.{.{.{.{.{.{.{.{.{.{.{.{.{.{.{.{.{.{.{.O., A + {.{.{.{.{.{.{.W.% % % ",
"{.{.{.{.{.{.{.% % : B B {.{.{.{.{.{.{.{.{.) r V.{.{.{.{.{.{.{.{.{.{.{.{.{.{.{.{.{.{.{.{.{.+ + < ; {.{.{.{.{.{.{.W.% % % ",
"{.{.{.{.{.{.{.% % : B {.{.{.{.{.{.{.{.{.{.r r 6.{.{.{.{.{.{.{.{.{.{.{.{.{.{.{.{.{.{.{.{.{.Q.o < , {.{.{.{.{.{.{.W.% % {.",
"{.{.{.{.{.{.{.{.% : >.{.{.{.{.{.{.{.{.{.{.r r J {.{.{.{.{.{.{.{.{.{.{.{.{.{.{.{.{.{.{.{.{.+ ~ < {.{.{.{.{.{.{.% % % % {.",
"{.{.{.{.{.{.{.{.{.B B {.{.{.{.{.{.{.{.{.r r r d.{.{.{.{.{.{.{.{.{.{.{.{.{.{.{.{.{.{.{.{.{.# c < {.{.{.{.{.{.{.% W.W.{.{.",
"{.{.{.{.{.{.{.{.{.{.{.{.{.{.{.{.{.{.{.{.{.r % % {.{.{.{.{.{.{.{.{.{.{.{.{.{.{.{.{.{.{.{.# ` F w {.{.{.{.{.{.{.{.{.{.{.{.",
"{.{.{.{.{.{.{.{.{.{.{.{.{.{.{.{.{.{.{.{.{.% % % {.{.{.{.{.{.{.{.{.{.{.{.{.{.{.{.{.{.{.# # ` < {.{.{.{.{.{.{.{.{.{.{.{.{.",
"{.{.{.{.{.{.{.{.{.{.{.{.{.{.{.{.{.{.{.{.{.{.{.{.{.{.{.{.{.{.{.{.{.{.{.{.{.{.{.{.{.{.{.J.! 2 {.{.{.{.{.{.{.{.{.{.{.{.{.{.",
"{.{.{.{.{.{.{.{.{.{.{.{.{.{.{.{.{.{.{.{.{.{.{.{.{.{.{.{.{.{.{.{.{.{.{.{.{.{.{.{.{.{.{.(.{.).{.{.{.{.{.{.{.{.{.{.{.{.{.{."
};
