/* XPM */
static char *_224441bdd3a4946b318dd2c56b8b13eimJFiw0KlkSZA9D5[] = {
/* columns rows colors chars-per-pixel */
"60 60 66 1 ",
"  c None",
". c black",
"X c #010101",
"o c #020202",
"O c gray1",
"+ c #040404",
"@ c #090909",
"# c gray4",
"$ c #0B0B0B",
"% c #0E0E0E",
"& c #131313",
"* c gray8",
"= c gray9",
"- c #181818",
"; c gray10",
": c gray11",
"> c #1E1E1E",
", c gray12",
"< c gray13",
"1 c #222222",
"2 c gray14",
"3 c #252525",
"4 c gray19",
"5 c #323232",
"6 c gray20",
"7 c #343434",
"8 c #353535",
"9 c gray21",
"0 c #373737",
"q c #393939",
"w c #3A3A3A",
"e c gray23",
"r c #3C3C3C",
"t c #3F3F3F",
"y c #663300",
"u c #267228",
"i c #434343",
"p c gray27",
"a c #464646",
"s c gray28",
"d c #494541",
"f c #494949",
"g c #4C4C4C",
"h c #565656",
"j c #5F5F5F",
"k c #646464",
"l c #656565",
"z c gray40",
"x c DimGray",
"c c gray42",
"v c #717171",
"b c gray45",
"n c #747474",
"m c gray48",
"M c #848484",
"N c gray53",
"B c #8B8B8B",
"V c gray55",
"C c gray56",
"Z c #909090",
"A c #959595",
"S c #989898",
"D c #A0A0A0",
"F c #A2A2A2",
"G c gray",
"H c #C193C1",
/* pixels */
"                            @+@                             ",
"                           OOOO@                            ",
"                            OO@O+                           ",
"                              @yOs                          ",
"                              1++@                          ",
"                               @@@                          ",
"                              1@++                          ",
"                               @@                           ",
"                              dd@                           ",
"                              y@@                           ",
"                             ry@@                           ",
"                             ey@                            ",
"                             ;y@                            ",
"                             dy@                            ",
"                            1d@@                            ",
"                            ;d@                             ",
"                            @d@                             ",
"                           ryd@                             ",
"                           1y@@                             ",
"                           1y@@@                            ",
"                           :y@@@                            ",
"                           ;y@@@                            ",
"                           1y@@@                            ",
"                           ;y;@@@  1                        ",
"                      G&&  ;y;eqOOO:                        ",
"                       &OOOqeeqeeO:v                        ",
"                       MOOOyyeeq9HHA                        ",
"                       OHH&yye&:iHsA                        ",
"                       OHHr4v&9,sHss                        ",
"                       OOrtrk&v5sBs:                        ",
"                       kOrrbvqe=fs1:                        ",
"                       rrjuubqquu:::1                       ",
"                      SrrAAu=ve@$:1O:                       ",
"                      krAA99HHH::+O::                       ",
"                      ZrrkAAOH:;OOOO1                       ",
"                      ZrOOOAOO5OOOOO:                       ",
"                      ZgOOAAAAOOOOO::                       ",
"                      AgOOZOOOOBOOO::                       ",
"                      n5OOZAOOOOOOOO1                       ",
"                      hhOOOOOOOOOOO@:                       ",
"                      h5O5OOOOOOOO:11                       ",
"                      hhO5OOBOO::+::                        ",
"                        OO135BOOOO1:                        ",
"                       hOO3139OOOO::                        ",
"                        hO&115:OO:1:                        ",
"                       fAO31&99:::1:                        ",
"                       fsf3&& 9:::::                        ",
"                       FF1OOO 9:1O+                         ",
"                        cc11O 5OOO1                         ",
"                        c313= 9O:::                         ",
"                        Ck3+O 9 ::1                         ",
"                        Z555O  k1::                         ",
"                        M5555  k:O:                         ",
"                        Bcc55 OO++:                         ",
"                         51O  OOO:                          ",
"                         1:O  OO+:                          ",
"                         1OO  m::                           ",
"                         1OO                                ",
"                         OOO                                ",
"                         OOO                                "
};
