/* XPM */
static char *c2a58d9664fe40909534be5fcd7a4c32ARn53nZCHp6sHSkr[] = {
/* columns rows colors chars-per-pixel */
"60 60 160 2 ",
"   c None",
".  c #0D0802",
"X  c #100A04",
"o  c #160A0A",
"O  c #110D08",
"+  c #15100B",
"@  c #16110C",
"#  c #16110D",
"$  c #17120D",
"%  c #18130E",
"&  c #19130E",
"*  c #19140F",
"=  c #1A1510",
"-  c #1A1511",
";  c #1A1611",
":  c #1B1611",
">  c #1B1711",
",  c #1C1712",
"<  c #1C1812",
"1  c #1D1813",
"2  c #1D1913",
"3  c #1E1814",
"4  c #1E1914",
"5  c #1E1915",
"6  c #1E1A14",
"7  c #1F1A15",
"8  c #1C1917",
"9  c #1F1A16",
"0  c #341E08",
"q  c #201B16",
"w  c #211D17",
"e  c #211C18",
"r  c #211E1B",
"t  c #221E1A",
"y  c #231E1A",
"u  c #231F1B",
"i  c #241F1B",
"p  c #38210A",
"a  c #25201C",
"s  c #25211C",
"d  c #25221D",
"f  c #26221D",
"g  c #26221E",
"h  c #27231F",
"j  c #26241D",
"k  c #28241F",
"l  c #34281C",
"z  c #252425",
"x  c #282420",
"c  c #282421",
"v  c #282521",
"b  c #292521",
"n  c #2A2622",
"m  c #2B2723",
"M  c #2B2822",
"N  c #2C2823",
"B  c #2B2824",
"V  c #2C2824",
"C  c #2C2825",
"Z  c #2D2B25",
"A  c #2E2A26",
"S  c #2F2B27",
"D  c #2E2D26",
"F  c #362D24",
"G  c #352E27",
"H  c #392F24",
"J  c #312628",
"K  c #302C28",
"L  c #302D28",
"P  c #312D29",
"I  c #322D29",
"U  c #312D2A",
"Y  c #322E2A",
"T  c #322E2B",
"R  c #332F2B",
"E  c #33302B",
"W  c #37312B",
"Q  c #34302C",
"!  c #34312C",
"~  c #34302D",
"^  c #35312D",
"/  c #35312E",
"(  c #36322E",
")  c #36322F",
"_  c #36332F",
"`  c #37332F",
"'  c #37342F",
"]  c #38342F",
"[  c #382F30",
"{  c #353330",
"}  c #383430",
"|  c #383431",
" . c #393531",
".. c #393432",
"X. c #393532",
"o. c #3A3632",
"O. c #3A3633",
"+. c #3B3733",
"@. c #3C3633",
"#. c #3D3832",
"$. c #3C3834",
"%. c #3C3835",
"&. c #3D3936",
"*. c #3E3A36",
"=. c #3E3A37",
"-. c #3F3B37",
";. c #3F3B38",
":. c #4B2906",
">. c #553311",
",. c #5D3912",
"<. c #5B3A19",
"1. c #593B1F",
"2. c #603101",
"3. c #663300",
"4. c #6A3300",
"5. c #483521",
"6. c #443C32",
"7. c #403B39",
"8. c #403C39",
"9. c #413C39",
"0. c #423D39",
"q. c #403E3A",
"w. c #22451E",
"e. c #2B5929",
"r. c #44403C",
"t. c #45413D",
"y. c #46423E",
"u. c #47433F",
"i. c #47443F",
"p. c #4C453D",
"a. c #493D40",
"s. c #444545",
"d. c #484440",
"f. c #494541",
"g. c #4A4642",
"h. c #464E40",
"j. c #4C4844",
"k. c #4D4945",
"l. c #4F4A48",
"z. c #504C48",
"x. c #514C49",
"c. c #54514D",
"v. c #55514E",
"b. c #5D554B",
"n. c #564750",
"m. c #5A5652",
"M. c #5B5754",
"N. c #5F5B57",
"B. c #615C59",
"V. c #5C5561",
"C. c #676260",
"Z. c #6A6562",
"A. c #6C6764",
"S. c #6E6966",
"D. c #76716E",
"F. c #7D6179",
"G. c #8C6C88",
"H. c #8F718C",
"J. c #B98EB9",
"K. c #D2A0D3",
/* pixels */
"                                                                                                                        ",
"                                                                                                                        ",
"                                                                                                                        ",
"                          &.Z.                                                                                          ",
"                        Z.Y &.                                                                                          ",
"                        b b Z.                                                                                          ",
"                      &.: b                                                                                             ",
"                    Z.: b Y                                                                                             ",
"                    : : b Z.                                                                                            ",
"                    Y : :                                                                                               ",
"                  f.: : :                                                                                               ",
"                  f.: : Y                                                                                               ",
"                  Y : : Y                                                                                               ",
"                  &.Y Y Y                                                                                               ",
"                  &.Y Y Y                                                                                               ",
"                  &.Y Y Z.                                                                                              ",
"                  f.Y Y Z.                                                                                              ",
"                  f.Y 3.                                                                                                ",
"                Z.3.G 3.                                                                                                ",
"                3.3.3.f.                                                                                                ",
"                Z.3.3.f.                                                                                                ",
"                  3.3.f.Z.                                                                                              ",
"                  3.3.f.f.                                                                          ,.s.                ",
"                  Z.3.f.f.                                                                          3.H       z.        ",
"                    f.3.f.Z.                                                                      3.3.G.n.k q.J         ",
"                    f.3.f.f.                                                                      3.V.J.K.V q.e.0.c.A.  ",
"                    Z.3.3.f.f.                                                                    { o.F.H.m h.w.Y Y &.  ",
"                      f.3.3.f.f.                                                              N.{ R V | 2 , 9 o 0 0 Y   ",
"                      f.3.3.3.3.3.f.f.f.f.f.f.f.f.3.Z.f.Z.f.f.3.f.f.f.Z.Z.                    v., M V h % % % 9 :.3.Y   ",
"                      f.3.3.3.3.3.3.3.3.3.3.3.3.3.3.<.f.f.3.3.3.3.3.3.f.f.f.f.f.Z.Z.Z.Z.Z.f.r.b : h 9 y * q h z 3.Y     ",
"                      f.3.3.f.3.3.3.3.3.3.3.3.3.3.3.3.3.3.3.3.3.3.3.3.3.3.f.3.Y Y b b b b b b b : b b : 9 b h l Y       ",
"                      f.f.f.f.3.3.3.3.3.3.3.3.3.3.3.3.3.3.3.3.3.3.3.Y Y Y Y Y : b : : b b b b b : b b b y h Y Y         ",
"                    f.f.f.f.3.3.3.3.3.3.3.3.3.3.3.3.3.3.3.3.3.Y 3.b b b b : : : : : : b b b b : : : b b b Y l.          ",
"                    f.f.f.3.3.3.3.3.3.3.3.3.3.3.3.3.3.3.3.3.3.b Y b b b : : : : : : : : : b : : : : b b Y : o.          ",
"                    f.f.f.3.3.3.3.3.3.3.3.3.3.3.3.3.3.3.3.Y Y Y b b b b : : : : b : : : : : : : : b b : : : Y           ",
"                  f.C.>.3.3.3.3.3.3.3.3.3.3.3.3.3.Y 3.3.H Y Y y b b b b : : : : b : : : : : : : : : : : :               ",
"                  r.% #.2.4.Y Y 3.3.3.3.3.3.3.Y %.R 3.Y Y b b b b Y Y b : : : : : 3.3.: : : : : : : : :                 ",
"                j.( % i.5.1.W Y Y 3.3.3.3.3.3.3.%.Y Y b b b b b Y Y b b : : : 3.3.4.0 , b : : : : : : :                 ",
"                r.b * f.r.&.' Y Y Y Y 3.3.3.3.Y R Y Y Y b b b Y Y Y Y b : : : Y Y Y &.b b : : : : : &.                  ",
"              &.( h * r.f.&.o.Y b b b b 3.( %.Y Y Y Y Y Y b b Y b Y b : : : 3.3.&.&.&.%.9 : : : b Y Y                   ",
"              ( h b % % d.&.&.( K b , , b Y Y Y Y Y Y Y Y b b b b Y b : : : 3.3.&.&.k h y : : : Y Y Y                   ",
"            f.% % V % % m.;.&.( R b y , : , : : : : Y Y b b b b b Y Y b : 3.3.&.&.&.h q = : : : b b f.                  ",
"          j.% % % o.$ $ d.{ ;.Y K y % % b b : : : : Y Y b Y Y b b Y Y b : 3.3.: &.{ * q q , b : ,                       ",
"        r.o.% % % N.( $ d.d.R d.C , % O % Y Y : V Y Y Y &.&.&.&.Y Y Y b b 3.: : h 9 , k V C , b b                       ",
"      f.{ % % % $ N.o.$ r.d.d.r.Y h O % V &.&.Y &.&.&.&.x.f.f.&.Z.Z.&.Y E 3.> : : . $ v m m b b                         ",
"    o.&.% % % d.d.$ ( $ V d.d.R V w + +                               ( ! ! { : ; : : v y b b C                         ",
"    Y f.% % d.d.N.( ( h m d.d.Y b $ $                                 ( ! ! { Y b.; : : V h b m k                       ",
"    o.% % d.r.%       % C &.K Y b *                                   E ! ! Y 9 6.p.: : : V , b h B                     ",
"    Y b N.r.B.        + V o.o.S Y                                     ( E E E y q.        : : 9 b v &.                  ",
"  &.9 N.N.N.          + b ( ( o.f.                                      E ( ! (             : : B b o.                  ",
"  Y X N.              $ V C b f.                                        ! 9 !                   b b b $                 ",
"* % % N.              + V 2 ]                                           ! y (                   b B B *                 ",
"% % % N.              : 2 O $                                           f.9 {                   b b : * %               ",
"  % % N.              9 2 O B.                                          ;.a a                     b : $ %               ",
"  % % % *               2 R O                                           U r 9                     &.: *                 ",
"    N.N.%               , b $                                           ;.r r a                   b b                   ",
"                        w V ( $                                         % % 9                                           ",
"                          2 ( $ $                                       % : ;                                           ",
"                            2 Y x.                                                                                      ",
"                            D.  S.                                                                                      "
};
