/* XPM */
static char *result[] = {
/* columns rows colors chars-per-pixel */
"60 60 32 1 ",
"  c #1B1611",
". c #1F1A15",
"X c #211C17",
"o c #221E1A",
"O c #382009",
"+ c #24201B",
"@ c #292521",
"# c #2A2622",
"$ c #2B2723",
"% c #2E2A26",
"& c #352E27",
"* c #392E23",
"= c #322E2A",
"- c #36302D",
"; c #36312E",
": c #373430",
"> c #3A3732",
", c #3C3836",
"< c #3D3936",
"1 c #5A3918",
"2 c #663300",
"3 c #403C39",
"4 c #267228",
"5 c #45413D",
"6 c #494541",
"7 c #4F4B47",
"8 c #564A50",
"9 c #696561",
"0 c #686462",
"q c #6A6562",
"w c #C193C1",
"e c None",
/* pixels */
"eeeeeeeeeeeeeeeeeeeeeeeeeeeeeeeeeeeeeeeeeeeeeeeeeeeeeeeeeeee",
"eeeeeeeeeeeeeeeeeeeeeeeeeeeeeeeeeeeeeeeeeeeeeeeeeeeeeeeeeeee",
"eeeeeeeeeeeeeeeeeeeeeeeeeeeeeeeeeeeeeeeeeeeeeeeeeeeeeeeeeeee",
"eeeeeeeeeeeeeeeeeeeeeeeeeeeeeeeeeeeeeeeeeeeeeeeeeeeee<qeeeee",
"eeeeeeeeeeeeeeeeeeeeeeeeeeeeeeeeeeeeeeeeeeeeeeeeeeeeq=<eeeee",
"eeeeeeeeeeeeeeeeeeeeeeeeeeeeeeeeeeeeeeeeeeeeeeeeeeee@@qeeeee",
"eeeeeeeeeeeeeeeeeeeeeeeeeeeeeeeeeeeeeeeeeeeeeeeeeee< @eeeeee",
"eeeeeeeeeeeeeeeeeeeeeeeeeeeeeeeeeeeeeeeeeeeeeeeeeeq @=eeeeee",
"eeeeeeeeeeeeeeeeeeeeeeeeeeeeeeeeeeeeeeeeeeeeeeeeee  @qeeeeee",
"eeeeeeeeeeeeeeeeeeeeeeeeeeeeeeeeeeeeeeeeeeeeeeeeee=  eeeeeee",
"eeeeeeeeeeeeeeeeeeeeeeeeeeeeeeeeeeeeeeeeeeeeeeeee6   eeeeeee",
"eeeeeeeeeeeeeeeeeeeeeeeeeeeeeeeeeeeeeeeeeeeeeeeee6  =eeeeeee",
"eeeeeeeeeeeeeeeeeeeeeeeeeeeeeeeeeeeeeeeeeeeeeeeee=  =eeeeeee",
"eeeeeeeeeeeeeeeeeeeeeeeeeeeeeeeeeeeeeeeeeeeeeeeee<===eeeeeee",
"eeeeeeeeeeeeeeeeeeeeeeeeeeeeeeeeeeeeeeeeeeeeeeeee<===eeeeeee",
"eeeeeeeeeeeeeeeeeeeeeeeeeeeeeeeeeeeeeeeeeeeeeeeee<==qeeeeeee",
"eeeeeeeeeeeeeeeeeeeeeeeeeeeeeeeeeeeeeeeeeeeeeeeee6==qeeeeeee",
"eeeeeeeeeeeeeeeeeeeeeeeeeeeeeeeeeeeeeeeeeeeeeeeee6=2eeeeeeee",
"eeeeeeeeeeeeeeeeeeeeeeeeeeeeeeeeeeeeeeeeeeeeeeeeq2&2eeeeeeee",
"eeeeeeeeeeeeeeeeeeeeeeeeeeeeeeeeeeeeeeeeeeeeeeee6222eeeeeeee",
"eeeeeeeeeeeeeeeeeeeeeeeeeeeeeeeeeeeeeeeeeeeeeeee622qeeeeeeee",
"eeeeeeeeeeeeeeeeeeeeeeeeeeeeeeeeeeeeeeeeeeeeeeeq622eeeeeeeee",
"eeeeeeeeeeeeeeeeeeeeeeeeeeeeeeeeeeeeeeeeeeeeeee6622eeeeeeeee",
"eeeeeeeeeeeeeeeeeeeeeeeeeeeeeeeeeeeeeeeeeeeeeee662qeeeeeeeee",
"eeeee62eeeeeeeeeeeeeeeeeeeeeeeeeeeeeeeeeeeeeeeq626eeeeeeeeee",
"eeeee=22eeeeeeeeeeeeeeeeeeeeeeeeeeeeeeeeeeeeee6626eeeeeeeeee",
"eeee<@w6<eeeeeeeeeeeeeeeeeeeeeeeeeeeeeeeeeeee6622qeeeeeeeeee",
"ee6<@ww8=<<qeeeeeeeeeeeeeeeeeeeeeeeeeeeeeeee66226eeeeeeeeeee",
"ee@<,<w@== <6eeeeeeeeeeqq666266q6q266666666222226eeeeeeeeeee",
"e6646X @@= ==<6qqqqq66666222222661222222222222226eeeeeeeeeee",
"06:     @ @@@@@@@@@==2622222222222222222222226226eeeeeeeeeee",
"<@         @@@@@@  @ =====22222222222222222226666eeeeeeeeeee",
"e@22@@@@     @@@@      @@@@2=222222222222222226666eeeeeeeeee",
"eq<<2@@@@@@   @         @@@=@222222222222222222666qeeeeeeeee",
"eeeeeeq@@@@        @    @@@@===22222222222222226666eeeeeeeee",
"eeeeeee<@@         @    @@@@o==*22=2222222222222266eeeeeeeee",
"eeeeeeee=@       22     @==@@@@==2=<=2222222==226666eeeeeeee",
"eeeeeeeeq=     @ O222   @@==@@@@@==<2222222=====6<66eeeeeeee",
"eeeeeeeee<     @@<===   @====@@@=====2222======<<<<6qeeeeeee",
"eeeeeeeee==@   .<<<<22   @=@=@@======<;2@@@@====<<<6qeeeeeee",
"eeeeeeeee===   @@@<<22   @=@@@@========@  @=====<<<<<eeeeeee",
"eeeeeeeee6@@    @@<<<22 @==@@@@@==       @@@===@==<<=qeeeeee",
"eeeeeeeeeq   @    << 22 @==@@==@==    @@@ @@==@@@===<6qeeeee",
"eeeeeeeeee    =@  @@  2@@===<<<<===% ====@@@@@@  @=<<<6qeeee",
"eeeeeeeee9    ==      2==<qq<667<<<<=<<=<=<<<<@  @==<<<6qeee",
"eeeeeeeee=     26@     eeeeeeeeeeeeee3@ =   qeq@  @$==<==<ee",
"eeeeeeee6@    2qeq  @@eeeeeeeeeeeeeeee=     qeeeq@@@==<==@ee",
"eeeeeee6=   22eeee<@@@eeeeeeeeeeeeeeeee=@@@ qeeeeee=====@=-e",
"eeeeee6#@@26qeeeee<@@@eeeeeeeeeeeeeeeee<@=@+=eeeeeeeeq=@  @e",
"eeeee=@@@<6eeeeeeeq@@@eeeeeeeeeeeeeeeeee=== <eeeeeeeeeeq  @e",
"eeee6@@=6eeeeeeeeee @@eeeeeeeeeeeeeeeeeeq====eeeeeeeeeeeq @e",
"eee6@@<eeeeeeeeeeee  @eeeeeeeeeeeeeeeeeee=@66eeeeeeeeeeee@@q",
"ee6==<eeeeeeeeeeeee< @eeeeeeeeeeeeeeeeee6@@6eeeeeeeeeeeee=@=",
"e6=>=eeeeeeeeeeeeee6 <eeeeeeeeeeeeeeeee6@=<eeeeeeeeeeeeee@@=",
"e=qqeeeeeeeeeeeeeee6 <eeeeeeeeeeeeeeee===5eeeeeeeeeeeeeee6@=",
"e6qeeeeeeeeeeeeeee6  eeeeeeeeeeeeee66@@=6eeeeeeeeeeeeeeeq<=q",
"eeeeeeeeeeeeeeeee6   eeeeeeeeeeeeeee6<<eeeeeeeeeeeeeeeeeeqqe",
"eeeeeeeeeeeeeeeee   qeeeeeeeeeeeeeeeeeeeeeeeeeeeeeeeeeeeeeee",
"eeeeeeeeeeeeeeeeeeeeeeeeeeeeeeeeeeeeeeeeeeeeeeeeeeeeeeeeeeee",
"eeeeeeeeeeeeeeeeeeeeeeeeeeeeeeeeeeeeeeeeeeeeeeeeeeeeeeeeeeee"
};
