/* XPM */
static char *_e8ba310eb514dd993d61ad42499b5deWjqACJP5MeSR6GKX[] = {
/* columns rows colors chars-per-pixel */
"60 60 29 1 ",
"  c None",
". c #1B1611",
"X c #1F1A15",
"o c #211C17",
"O c #221E1A",
"+ c #38210A",
"@ c #25211C",
"# c #292521",
"$ c #2A2622",
"% c #2C2824",
"& c #2E2A26",
"* c #352E27",
"= c #392F24",
"- c #322E2A",
"; c #36322E",
": c #36322F",
"> c #393531",
", c #3B3734",
"< c #3D3936",
"1 c #5B3A19",
"2 c #663300",
"3 c #403C39",
"4 c #267228",
"5 c #45413D",
"6 c #494541",
"7 c #504C48",
"8 c #564A50",
"9 c #6A6562",
"0 c #C193C1",
/* pixels */
"                                                            ",
"                                                            ",
"                                                            ",
"     9<                                                     ",
"     <-9                                                    ",
"     9##                                                    ",
"      #.<                                                   ",
"      -#.9                                                  ",
"      9#..                                                  ",
"       ..-                                                  ",
"       ...6                                                 ",
"       -..6                                                 ",
"       -..-                                                 ",
"       ---<                                                 ",
"       ---<                                                 ",
"       9--<                                                 ",
"       9--6                                                 ",
"        2-6                                                 ",
"        2*29                                                ",
"        2226                                                ",
"        9226                                                ",
"         2269                                               ",
"         2266                                               ",
"         9266                                               ",
"          6269                                       26     ",
"          6266                                      22-     ",
"          92266                                    <60#<    ",
"           62266                                9<<-800#<6  ",
"           62222266666666296966266699          6<.--#0<<<#  ",
"           62222222222222216622222266666999996<--.-##.o6466 ",
"           6226222222222222222222222262--#########.#.....>69",
"           66662222222222222222222-----.#..######.........#<",
"          666622222222222222222-2####......####.....####22# ",
"         9666222222222222222222#-###.........#...######2<<9 ",
"         66662222222222222222---####....#........####9      ",
"         6622222222222222-22=--O####....#.........##<       ",
"        666622--2222222-<-2--####--#.....22.......#-        ",
"        66<6-----2222222<--#####--##...222+.#.....-9        ",
"       96<<<<------2222-----###----#...---<##.....<         ",
"       96<<<----####2:<------##-#-#...22<<<<o...#--         ",
"       <<<<<-----#..#--------####-#...22<<###...---         ",
"      9-<<--#---###.......--#####--#.22<<<##....##6         ",
"     96<---###--##.###....--#--##--#.22.<<....#...9         ",
"    96<<<-#..######----.%---<<<<---##2..##..#-....          ",
"   96<<<--#..#<<<<-<-<<-<<<<766<99<--2......--....9         ",
"  <--<--%#..#9 9...-.#3              .....#62.....-         ",
"  #--<--###9   9.....-                ##..9 92....#6        ",
" ;-#-----      9.###-                 ###<    22...-6       ",
" #..#-9        -@#-#<                 ###<     962###6      ",
" #..9          <.---                  ###9       6<###-     ",
" #.9           ----9                  ##.          6-##6    ",
"9##            66#-                   #..            <##6   ",
"-#-             6##6                  #.<             <--6  ",
"-##              <-#6                 <.6              -<-6 ",
"-#6               5---                <.6               99- ",
"9-<9               6-##66              ..6               96 ",
" 99                  <<6               ...6                 ",
"                                       9...                 ",
"                                                            ",
"                                                            "
};
