/* XPM */
static char *result[] = {
/* columns rows colors chars-per-pixel */
"64 64 4 1 ",
"  c #FF4118",
". c #C1396F",
"X c #FFA718",
"o c None",
/* pixels */
"oooooooooooooooooooooooooooooooooooooooooooooooooooooooooooooooo",
"oooooooooooooooooooooooooooooooooooooooooooooooooooooooooooooooo",
"oooooooooooooooooooooooooooooooooooooooooooooooooooooooooooooooo",
"oooooooooooooooooooooooooooooooooooooooooooooooooooooooooooooooo",
"oooooooooooooooooooooooooooooooooooooooooooooooooooooooooooooooo",
"oooooooooooooooooooooooooooooooooooooooooooooooooooooooooooooooo",
"oooooooooooooooooooooooooooooooooooooooooooooooooooooooooooooooo",
"oooooooooooooooooooooooooooooooooooooooooooooooooooooooooooooooo",
"oooooooooooooooooooooooooooooooooooooooooooooooooooooooooooooooo",
"oooooooooooooooooooooooooooooooooooooooooooooooooooooooooooooooo",
"oooooooooooooooooooooooooooooooooooooooooooooooooooooooooooooooo",
"oooooooooooooooooooooooooooooooooooooooooooooooooooooooooooooooo",
"oooooooooooooooooooooooooooooooooooooooooooooooooooooooooooooooo",
"oooooooooooooooooooooooooooooooooooooooooooooooooooooooooooooooo",
"oooooooooooooooooooooooooooooooooooooooooooooooooooooooooooooooo",
"oooooooooooooooooooooooooooooooooooooooooooooooooooooooooooooooo",
"oooooooooooooooooooooooooooooooooooooooooooooooooooooooooooooooo",
"oooooooooooooooooooooooooooooooooooooooooooooooooooooooooooooooo",
"oooooooooooooooooooooooooooooooooooooooooooooooooooooooooooooooo",
"oooooooooooooooooooooooooooooooooooooooooooooooooooooooooooooooo",
"oooooooooooooooooooo........................oooooooooooooooooooo",
"oooooooooooooooooooo........................oooooooooooooooooooo",
"oooooooooooooooo......                    ......oooooooooooooooo",
"oooooooooooooooo......                    ......oooooooooooooooo",
"oooooooooooooo....                            ....oooooooooooooo",
"oooooooooooooo....                            ....oooooooooooooo",
"oooooooooooooo..                                ..oooooooooooooo",
"oooooooooooooo..                                ..oooooooooooooo",
"oooooooooooooo....                            ....oooooooooooooo",
"oooooooooooooo....                            ....oooooooooooooo",
"oooooooooooooooo....                        ....oooooooooooooooo",
"oooooooooooooooo....                        ....oooooooooooooooo",
"oooooooooooooooooo....                    ....oooooooooooooooooo",
"oooooooooooooooooo....                    ....oooooooooooooooooo",
"oooooooooooooooooooo..                    ..oooooooooooooooooooo",
"oooooooooooooooooooo..                    ..oooooooooooooooooooo",
"oooooooooooooooooooo..                    ..oooooooooooooooooooo",
"oooooooooooooooooooo..                    ..oooooooooooooooooooo",
"oooooooooooooooooooo..  ....        ....  ..oooooooooooooooooooo",
"oooooooooooooooooooo..  ....        ....  ..oooooooooooooooooooo",
"oooo....oooooooooooo..    ..        ..    ..oooooooooooo....oooo",
"oooo....oooooooooooo..    ..        ..    ..oooooooooooo....oooo",
"oooo..............oo....  ..        ..  ....oo..............oooo",
"oooo..............oo....  ..        ..  ....oo..............oooo",
"oooooo....XXXXXX........                ........XXXXXX....oooooo",
"oooooo....XXXXXX........                ........XXXXXX....oooooo",
"oooooooo..........XXXX..                ..XXXX..........oooooooo",
"oooooooo..........XXXX..                ..XXXX..........oooooooo",
"oooooooooooooooo........                ........oooooooooooooooo",
"oooooooooooooooo........                ........oooooooooooooooo",
"oooooooooooooooooo....                    ....oooooooooooooooooo",
"oooooooooooooooooo....                    ....oooooooooooooooooo",
"oooooooooooooooo....      ..        ..      ....oooooooooooooooo",
"oooooooooooooooo....      ..        ..      ....oooooooooooooooo",
"oooooooooooooooo..    ......  ....  ......    ..oooooooooooooooo",
"oooooooooooooooo..    ......  ....  ......    ..oooooooooooooooo",
"oooooooooooooo....  ....oo..  ....  ..oo....  ....oooooooooooooo",
"oooooooooooooo....  ....oo..  ....  ..oo....  ....oooooooooooooo",
"oooooooooooo....  ....oo................oo....  ....oooooooooooo",
"oooooooooooo....  ....oo................oo....  ....oooooooooooo",
"oooooooo............oooo......oooo......oooo............oooooooo",
"oooooooo............oooo......oooo......oooo............oooooooo",
"oooooooo........oooooooo....oooooooo....oooooooo........oooooooo",
"oooooooo........oooooooo....oooooooo....oooooooo........oooooooo"
};
