/* XPM */
static char *result[] = {
/* columns rows colors chars-per-pixel */
"64 64 4 1 ",
"  c #FF4118",
". c #C1396F",
"X c #FFA718",
"o c None",
/* pixels */
"oooooooooooooooooooooooooooooooooooooooooooooooooooooooooooooooo",
"oooooooooooooooooooooooooooooooooooooooooooooooooooooooooooooooo",
"oooooooooooooooooooooooooooooooooooooooooooooooooooooooooooooooo",
"oooooooooooooooooooooooooooooooooooooooooooooooooooooooooooooooo",
"oooooooooooooooooooooooooooooooooooooooooooooooooooooooooooooooo",
"oooooooooooooooooooooooooooooooooooooooooooooooooooooooooooooooo",
"oooooooooooooooooooooooooooooooooooooooooooooooooooooooooooooooo",
"oooooooooooooooooooooooooooooooooooooooooooooooooooooooooooooooo",
"oooooooooooooooooooo........................oooooooooooooooooooo",
"oooooooooooooooooooo........................oooooooooooooooooooo",
"oooooooooooooooo......                    ......oooooooooooooooo",
"oooooooooooooooo......                    ......oooooooooooooooo",
"oooooooooooooo....                            ....oooooooooooooo",
"oooooooooooooo....                            ....oooooooooooooo",
"oooooooooooooo..                                ..oooooooooooooo",
"oooooooooooooo..                                ..oooooooooooooo",
"oooooooooooooo....                            ....oooooooooooooo",
"oooooooooooooo....                            ....oooooooooooooo",
"oooooooooooooooo....                        ....oooooooooooooooo",
"oooooooooooooooo....                        ....oooooooooooooooo",
"oooooooooooooooooo....                    ....oooooooooooooooooo",
"oooooooooooooooooo....                    ....oooooooooooooooooo",
"oooooooooooooooooooo..                    ..oooooooooooooooooooo",
"oooooooooooooooooooo..                    ..oooooooooooooooooooo",
"oooooooooooooooooooo..    ..        ..    ..oooooooooooooooooooo",
"oooooooooooooooooooo..    ..        ..    ..oooooooooooooooooooo",
"oooooooooooooooooooo..    ..        ..    ..oooooooooooooooooooo",
"oooooooooooooooooooo..    ..        ..    ..oooooooooooooooooooo",
"oooooooooooooooooooo..    ..        ..    ..oooooooooooooooooooo",
"oooooooooooooooooooo..    ..        ..    ..oooooooooooooooooooo",
"oooooooooooooooooooo....  ..        ..  ....oooooooooooooooooooo",
"oooooooooooooooooooo....  ..        ..  ....oooooooooooooooooooo",
"oooooooooooooooooooo....                ....oooooooooooooooooooo",
"oooooooooooooooooooo....                ....oooooooooooooooooooo",
"oooooooooooooooooooooo..                ..oooooooooooooooooooooo",
"oooooooooooooooooooooo..                ..oooooooooooooooooooooo",
"oooooooooooooooooo......                ......oooooooooooooooooo",
"oooooooooooooooooo......                ......oooooooooooooooooo",
"oooooooooooooooooo....                    ....oooooooooooooooooo",
"oooooooooooooooooo....                    ....oooooooooooooooooo",
"oooooooooooooooo....      ..  ....  ..      ....oooooooooooooooo",
"oooooooooooooooo....      ..  ....  ..      ....oooooooooooooooo",
"oooooooooooooooo..    ......  ....  ......    ..oooooooooooooooo",
"oooooooooooooooo..    ......  ....  ......    ..oooooooooooooooo",
"oooooooooooooooo..  ....XX..  ....  ..XX....  ..oooooooooooooooo",
"oooooooooooooooo..  ....XX..  ....  ..XX....  ..oooooooooooooooo",
"oooooooooooooooo......XXXX..  ....  ..XXXX......oooooooooooooooo",
"oooooooooooooooo......XXXX..  ....  ..XXXX......oooooooooooooooo",
"oooooooooooooooooo..XXXX....  ....  ....XXXX..oooooooooooooooooo",
"oooooooooooooooooo..XXXX....  ....  ....XXXX..oooooooooooooooooo",
"oooooooooooooooooo..XX......  ....  ......XX..oooooooooooooooooo",
"oooooooooooooooooo..XX......  ....  ......XX..oooooooooooooooooo",
"oooooooooooooooooo..XX..oo............oo..XX..oooooooooooooooooo",
"oooooooooooooooooo..XX..oo............oo..XX..oooooooooooooooooo",
"oooooooooooooooooo......oooo........oooo......oooooooooooooooooo",
"oooooooooooooooooo......oooo........oooo......oooooooooooooooooo",
"oooooooooooooooooooooooooooo........oooooooooooooooooooooooooooo",
"oooooooooooooooooooooooooooo........oooooooooooooooooooooooooooo",
"oooooooooooooooooooooooooooooooooooooooooooooooooooooooooooooooo",
"oooooooooooooooooooooooooooooooooooooooooooooooooooooooooooooooo",
"oooooooooooooooooooooooooooooooooooooooooooooooooooooooooooooooo",
"oooooooooooooooooooooooooooooooooooooooooooooooooooooooooooooooo",
"oooooooooooooooooooooooooooooooooooooooooooooooooooooooooooooooo",
"oooooooooooooooooooooooooooooooooooooooooooooooooooooooooooooooo"
};
