/* XPM */
static char *result[] = {
/* columns rows colors chars-per-pixel */
"64 64 4 1 ",
"  c #FF4118",
". c #C1396F",
"X c #FFA718",
"o c None",
/* pixels */
"oooooooooooooooooooooooooooooooooooooooooooooooooooooooooooooooo",
"oooooooooooooooooooooooooooooooooooooooooooooooooooooooooooooooo",
"oooooooooooooooooooo........................oooooooooooooooooooo",
"oooooooooooooooooooo........................oooooooooooooooooooo",
"oooooooooooooooo......                    ......oooooooooooooooo",
"oooooooooooooooo......                    ......oooooooooooooooo",
"oooooooooooooo....                            ....oooooooooooooo",
"oooooooooooooo....                            ....oooooooooooooo",
"oooooooooooooo..                                ..oooooooooooooo",
"oooooooooooooo..                                ..oooooooooooooo",
"oooooooooooooo....                            ....oooooooooooooo",
"oooooooooooooo....                            ....oooooooooooooo",
"oooooooooooooooo....                        ....oooooooooooooooo",
"oooooooooooooooo....                        ....oooooooooooooooo",
"oooooooooooooooooo....                    ....oooooooooooooooooo",
"oooooooooooooooooo....                    ....oooooooooooooooooo",
"oooooooooooooooooooo..                    ..oooooooooooooooooooo",
"oooooooooooooooooooo..                    ..oooooooooooooooooooo",
"oooooooooooooooooooo..    ..        ..    ..oooooooooooooooooooo",
"oooooooooooooooooooo..    ..        ..    ..oooooooooooooooooooo",
"oooooooooooooooooooo..    ..        ..    ..oooooooooooooooooooo",
"oooooooooooooooooooo..    ..        ..    ..oooooooooooooooooooo",
"oooooooooooooooooooo..    ..        ..    ..oooooooooooooooooooo",
"oooooooooooooooooooo..    ..        ..    ..oooooooooooooooooooo",
"oooooooooooooooooooo....  ..        ..  ....oooooooooooooooooooo",
"oooooooooooooooooooo....  ..        ..  ....oooooooooooooooooooo",
"oooooooooooooooooooo....                ....oooooooooooooooooooo",
"oooooooooooooooooooo....                ....oooooooooooooooooooo",
"oooooooooooooooooooooo..                ..oooooooooooooooooooooo",
"oooooooooooooooooooooo..                ..oooooooooooooooooooooo",
"oooooooooooooooooo......                ......oooooooooooooooooo",
"oooooooooooooooooo......                ......oooooooooooooooooo",
"oooooooooooooooooo....                    ....oooooooooooooooooo",
"oooooooooooooooooo....                    ....oooooooooooooooooo",
"oooooooooooooooo....      ..  ....  ..      ....oooooooooooooooo",
"oooooooooooooooo....      ..  ....  ..      ....oooooooooooooooo",
"oooooooooooooo....    ......  ....  ......    ....oooooooooooooo",
"oooooooooooooo....    ......  ....  ......    ....oooooooooooooo",
"oooooooooooo....    ....XX..  ....  ..XX....    ....oooooooooooo",
"oooooooooooo....    ....XX..  ....  ..XX....    ....oooooooooooo",
"oooooooooo..      ....XXXX..  ....  ..XXXX....      ..oooooooooo",
"oooooooooo..      ....XXXX..  ....  ..XXXX....      ..oooooooooo",
"oooooooooo..........XXXX....  ....  ....XXXX..........oooooooooo",
"oooooooooo..........XXXX....  ....  ....XXXX..........oooooooooo",
"oooooooooooooooo..XXXX......  ....  ......XXXX..oooooooooooooooo",
"oooooooooooooooo..XXXX......  ....  ......XXXX..oooooooooooooooo",
"oooooooooooooo..XXXX....oo....oooo....oo....XXXX..oooooooooooooo",
"oooooooooooooo..XXXX....oo....oooo....oo....XXXX..oooooooooooooo",
"oooooooooooooo......oooooooooooooooooooooo........oooooooooooooo",
"oooooooooooooo......oooooooooooooooooooooo........oooooooooooooo",
"oooooooooooooooooooooooooooooooooooooooooooooooooooooooooooooooo",
"oooooooooooooooooooooooooooooooooooooooooooooooooooooooooooooooo",
"oooooooooooooooooooooooooooooooooooooooooooooooooooooooooooooooo",
"oooooooooooooooooooooooooooooooooooooooooooooooooooooooooooooooo",
"oooooooooooooooooooooooooooooooooooooooooooooooooooooooooooooooo",
"oooooooooooooooooooooooooooooooooooooooooooooooooooooooooooooooo",
"oooooooooooooooooooooooooooooooooooooooooooooooooooooooooooooooo",
"oooooooooooooooooooooooooooooooooooooooooooooooooooooooooooooooo",
"oooooooooooooooooooooooooooooooooooooooooooooooooooooooooooooooo",
"oooooooooooooooooooooooooooooooooooooooooooooooooooooooooooooooo",
"oooooooooooooooooooooooooooooooooooooooooooooooooooooooooooooooo",
"oooooooooooooooooooooooooooooooooooooooooooooooooooooooooooooooo",
"oooooooooooooooooooooooooooooooooooooooooooooooooooooooooooooooo",
"oooooooooooooooooooooooooooooooooooooooooooooooooooooooooooooooo"
};
