/* XPM */
static char *_c02138d0e8c43ae86e3f0b9b82bf93e9QJOFEjEBwkZS0kp[] = {
/* columns rows colors chars-per-pixel */
"60 60 112 2 ",
"   c None",
".  c #050505",
"X  c #080807",
"o  c #090709",
"O  c #0A0A0A",
"+  c #0C120E",
"@  c #0E1F12",
"#  c #1B1A1A",
"$  c #002B04",
"%  c #03230D",
"&  c #0D2413",
"*  c #0C2A14",
"=  c #102716",
"-  c #112A17",
";  c #132C19",
":  c #182E1E",
">  c #15321B",
",  c #18361E",
"<  c #153A1B",
"1  c #193A1F",
"2  c #201F21",
"3  c #173420",
"4  c #193622",
"5  c #1C3A25",
"6  c #1F3D28",
"7  c #222B24",
"8  c #262528",
"9  c #213C2B",
"0  c #2E2E31",
"q  c #333337",
"w  c #39383C",
"e  c #04400C",
"r  c #0C4714",
"t  c #114B17",
"y  c #17401D",
"u  c #18431F",
"i  c #184F1F",
"p  c #1A4422",
"a  c #1C4C23",
"s  c #1F4028",
"d  c #1E4C2A",
"f  c #1C5323",
"g  c #24422E",
"h  c #244A2D",
"j  c #215526",
"k  c #23552B",
"l  c #225C29",
"z  c #264430",
"x  c #264932",
"c  c #2A4C33",
"v  c #33403D",
"b  c #2B5536",
"n  c #2D5A35",
"m  c #2E5638",
"M  c #2E5A39",
"N  c #305C35",
"B  c #33513C",
"V  c #315E3A",
"C  c #2C6232",
"Z  c #2D6B34",
"A  c #34643D",
"S  c #356A3B",
"D  c #38693E",
"F  c #3C3A41",
"G  c #413E49",
"H  c #384643",
"J  c #3F4A47",
"K  c #3E4948",
"L  c #365541",
"P  c #375D43",
"I  c #3A6D41",
"U  c #3E7344",
"Y  c #444343",
"T  c #424B4D",
"R  c #494654",
"E  c #4A4956",
"W  c #4E4F58",
"Q  c #4E515B",
"!  c #417645",
"~  c #427947",
"^  c #437948",
"/  c #4D6054",
"(  c #555760",
")  c #5A6368",
"_  c #62626F",
"`  c #656572",
"'  c #6D727B",
"]  c #44814D",
"[  c #4D8F54",
"{  c #5A885E",
"}  c #55AD5B",
"|  c #6B8071",
" . c #5BA761",
".. c #5FAE65",
"X. c #61B167",
"o. c #67BC6C",
"O. c #68BF6E",
"+. c #7E8C8D",
"@. c #928E92",
"#. c #80A185",
"$. c #82A888",
"%. c #90AF92",
"&. c #9AAEAA",
"*. c #A6B6AB",
"=. c #C7CFCB",
"-. c #C0D5C1",
";. c #C7DEC7",
":. c #D4D7D5",
">. c #D8DBD8",
",. c #EEF6F1",
"<. c #F4FAF6",
"1. c #FEFFFE",
/* pixels */
"                                                                                                                        ",
"                                                                                                                        ",
"                                                    . . . . . . . o                                                     ",
"                                                g z . z z z g z g . g g                                                 ",
"                                          [ [ o.X.o.o.. . . . . . O.O.o.o.[ [                                           ",
"                                            [ [ 9 . . . . . . . . . . 9 [ [                                             ",
"                                                g U V A . . . o A M U g                                                 ",
"                                                  ! o.o.o.o.o.o.o.o.U                                                   ",
"                                                  ^ ~ C i f f i C ~ !                                                   ",
"                                          & & V   ^ U n i f f i n ! U   b & &                                           ",
"                                          O.&     ^ ^ V 6 4 5 s V ^ !     & O.                                          ",
"                                          } & V   ^ I n 3 5 5 > N D !   ~ & }                                           ",
"                                        X.} -.;.  S D D 4 5 5 3 D D D   ;.-.} X.                                        ",
"                                        U V x ]  .6 D M > 5 5 3 n D 5  .] c M U                                         ",
"                                        ! >.%.a & * f =.=.* * =.=.j * & a %.>.!                                         ",
"                                        ..A I N   = n =.=.> ; =.=.C =   n I A X.                                        ",
"                                        ..1 c     f n k f a a a k b f     c 1 ..                                        ",
"                                        U s g S U f D C i f f i Z D f U S g s U                                         ",
"                                          s A b b f l =.=.r r =.=.l f b m A s                                           ",
"                                          = ; & , U Z =.=.d d =.=.C U , & ; =                                           ",
"                                                l U U U U U U U U ! U l                                                 ",
"                                            a l Z Z Z Z Z Z Z Z Z Z Z Z l p                                             ",
"                                          6 ; > f k f f k b n f f f k f < ; 6                                           ",
"                                        g ; 5 z z M b M b M m m m n M z z 5 ; z                                         ",
"                                  = = > g g g g 5 5 5 ; 5 ~ ~ 5 = 5 5 4 9 z g g > = -                                   ",
"                                - & h ^ ! V h c b 5 b h b ! ! b h b 5 b c z N U ^ h & =                                 ",
"                                5 A ! ! ! ! h h U h - i i * = i t > h U h h ~ U ! ~ A ,                                 ",
"                              6 D ! U U ! ! ~ Z { ,.1.+.e f i < +.1.,.{ S ! U ! ! U ~ I 6                               ",
"                              ; 4 b b 9 g 5 % | 1.<.1.$.$ X X $ $.1.<.1.' % 5 g g b c 4 -                               ",
"                              5 b D I N U ~ u Q :.<.Y . < f j < . Y 1.:./ p ~ U n D I b 6                               ",
"                              6 b M b V ! g x k f f f u = - = = < f f f l h g U A b n b 5                               ",
"                              5 b I ! I b b V h = - = u f f f j y * - * g A b b I ~ I b 5                               ",
"                              q W ( R K U l > = > f > - * - ; ; * < f > = > l U K R ( W q                               ",
"                              w ` ' _ K 5 b c x b s ) ` K 3 3 K ` ) g b x z b 5 K _ ' ` w                               ",
"                              F F L x 4 5 9 b M M b z c c 5 5 c c z M b M b 6 5 5 c B F F                               ",
"                                Y L p ; z 9 9 c M M b M b c b b b M b M x 9 z z ; p L K                                 ",
"                                z 5 h M b 6 9 z z z z x M b b b c z z z z 5 6 M M g 5 z                                 ",
"                                  5 g n b M s 5 z 9 b c 9 z z z c b z z 5 s M b M h 5                                   ",
"                                  z z x M > > 5 5 4 5 4 6 z z 5 5 5 5 5 5 3 3 b x 9 z                                   ",
"                                  E H 6 4 b M M b 6 b z 4 5 5 4 d c 6 c M M c 5 s H E                                   ",
"                                      T b > : g M b M x 4 5 6 4 h M b M g ; ; b T                                       ",
"                                        b h 9 z z b M b m M m b b M b z g g z n                                         ",
"                                        ' P h 9 z z 9 c M b m M c z z z g h P '                                         ",
"                                          Q w 7 - g z z x M m c 9 z 9 ; 7 w Q                                           ",
"                                            E v & O O O + = & O O O O & v E                                             ",
"                                                0 : + . O O O O o + : 0                                                 ",
"                                            x A U U ^ C f f j f C ^ U U A x                                             ",
"                                          z > 5 M 5 * +.&.t t &.+.* 5 m 5 3 z                                           ",
"                                          b S ! ! ! ~ n , = ; > n ~ U U ^ I b                                           ",
"                                          . @.*.d m b n m b n M b n b d *.@..                                           ",
"                                          O O O O O O . # Y Y # . O O O O O X                                           ",
"                                            ; @ o O O O O O O O O O O O & ;                                             ",
"                                        = ; - & o O O O O O O O O O O o @ - - -                                         ",
"                                        ; + o O O O O O O O O O O O O O O o + ;                                         ",
"                                        = + o O O O . 2 8 X X 8 2 . O O O o O ;                                         ",
"                                          O O O O O O O O O O O O O O O O O +                                           ",
"                                                  O O O O O O O O O O                                                   ",
"                                                        O O O O                                                         ",
"                                                                                                                        ",
"                                                                                                                        "
};
